<svg width="22" height="22" viewBox="0 0 22 22" fill="none" xmlns="http://www.w3.org/2000/svg">
<mask id="mask0" mask-type="alpha" maskUnits="userSpaceOnUse" x="0" y="0" width="22" height="22">
<path fill-rule="evenodd" clip-rule="evenodd" d="M21.5 0.5H0.5V21.5H12.2945C10.6623 20.4251 9.58654 18.587 9.58654 16.5C9.58654 13.1863 12.2987 10.5 15.6442 10.5C18.4516 10.5 20.8129 12.3915 21.5 14.958V0.5ZM21.5 18.042C21.116 19.4762 20.2092 20.6997 18.9939 21.5H21.5V18.042Z" fill="#C4C4C4"/>
</mask>
<g mask="url(#mask0)">
<mask id="mask1" mask-type="alpha" maskUnits="userSpaceOnUse" x="-1" y="5" width="22" height="17">
<path fill-rule="evenodd" clip-rule="evenodd" d="M5.22401 5.5H-0.509644V21.5H6.55766L9.88442 18.5L8.87481 17L6.05286 13.5L5.22401 5.5ZM14.6346 5.5H20.6923V21.5H11.6057V9L13.5222 8.05091C14.2035 7.71349 14.6346 7.01895 14.6346 6.25865V5.5Z" fill="#C4C4C4"/>
</mask>
<g mask="url(#mask1)">
<path d="M1.23438 6.97754V18.2275H4.38943V21.3916L8.3924 18.2275H17.6406V6.97754H1.23438ZM2.49639 8.22754H16.3786V16.9775H7.95858L5.65144 18.794V16.9775H2.49639V8.22754Z" fill="white"/>
</g>
<path d="M11.3425 1.43118C11.0268 1.30163 10.6986 1.28678 10.358 1.38665L10.314 1.38975L7.6892 2.51147L7.69987 2.53699C7.31488 2.67501 7.00442 2.90702 6.76848 3.23303C6.53757 3.54702 6.41241 3.89734 6.393 4.284L6.38545 4.30204C6.32098 5.37489 6.37397 6.52412 6.54442 7.74974C6.78968 9.44294 7.23247 11.0551 7.87278 12.5862C8.92574 15.1041 10.5466 17.4039 12.7352 19.4857L12.7534 19.4932C13.0553 19.758 13.3975 19.9266 13.7799 19.9989C14.1744 20.0762 14.5617 20.0519 14.9417 19.9259L17.5438 18.8583C17.8874 18.7173 18.1321 18.4724 18.278 18.1236C18.4289 17.7627 18.4332 17.4121 18.2909 17.0719L16.9036 13.7544L16.9004 13.7109C16.7581 13.3706 16.5048 13.1257 16.1405 12.9763C15.7761 12.8268 15.4222 12.8225 15.0786 12.9634L13.4297 13.6399C12.7121 12.8381 12.1429 11.9704 11.7223 11.0368C11.3159 10.1372 11.1025 9.13352 11.0819 8.02579L12.7308 7.3493C13.0743 7.20836 13.3191 6.96346 13.4649 6.6146C13.6108 6.26574 13.6066 5.91869 13.4521 5.57346L13.4779 5.56289L12.1101 2.14774L12.0705 2.08923C11.901 1.78009 11.6583 1.56074 11.3425 1.43118ZM10.8596 2.58603C10.896 2.60098 10.931 2.63647 10.9645 2.69249L12.3398 6.08959C12.3319 6.14269 12.3021 6.17981 12.2506 6.20095L10.1895 7.04657L9.81054 7.18708L9.78714 7.60029L9.79446 8.19523C9.82486 8.70097 9.88709 9.19864 9.98116 9.68823C10.1242 10.367 10.3191 10.9896 10.5661 11.556L10.6483 11.7166C10.8982 12.2419 11.2103 12.7716 11.5845 13.3057C11.8483 13.6958 12.1342 14.0668 12.4424 14.4187L13.1037 15.134L15.5771 14.1193C15.6286 14.0981 15.6605 14.09 15.6726 14.095C15.6847 14.1 15.7015 14.128 15.7228 14.1791L17.1529 17.5986C17.1671 17.6326 17.1717 17.6556 17.1667 17.6677C17.1667 17.6677 17.1495 17.6747 17.1151 17.6888L14.5387 18.7458C14.1931 18.8577 13.8729 18.7898 13.5781 18.542C11.5151 16.5681 9.99975 14.4243 9.03217 12.1106C8.43455 10.6815 8.0223 9.16645 7.79544 7.56535C7.64129 6.40281 7.591 5.3322 7.64455 4.35352C7.64628 4.21329 7.69554 4.07847 7.79235 3.94906C7.89418 3.80763 8.01129 3.71474 8.14367 3.67039L10.7094 2.58785C10.7731 2.57169 10.8231 2.57109 10.8596 2.58603Z" fill="white"/>
</g>
<path d="M15.6443 11.5C14.7372 11.5 13.8958 11.7279 13.1202 12.1836C12.3446 12.6263 11.7268 13.2318 11.2666 14C10.8197 14.7682 10.5962 15.6016 10.5962 16.5C10.5962 17.3984 10.8197 18.2318 11.2666 19C11.7268 19.7682 12.3446 20.3737 13.1202 20.8164C13.8958 21.2721 14.7372 21.5 15.6443 21.5C16.5513 21.5 17.3927 21.2721 18.1683 20.8164C18.9439 20.3737 19.5552 19.7682 20.0022 19C20.4623 18.2318 20.6923 17.3984 20.6923 16.5C20.6923 15.6016 20.4623 14.7682 20.0022 14C19.5552 13.2318 18.9439 12.6263 18.1683 12.1836C17.3927 11.7279 16.5513 11.5 15.6443 11.5ZM15.6443 12.75C16.3279 12.75 16.9589 12.9193 17.5373 13.2578C18.1157 13.5964 18.5758 14.0521 18.9176 14.625C19.2594 15.1979 19.4303 15.8229 19.4303 16.5C19.4303 17.1771 19.2594 17.8021 18.9176 18.375C18.5758 18.9479 18.1157 19.4036 17.5373 19.7422C16.9589 20.0807 16.3279 20.25 15.6443 20.25C14.9607 20.25 14.3297 20.0807 13.7512 19.7422C13.1728 19.4036 12.7127 18.9479 12.3709 18.375C12.0291 17.8021 11.8582 17.1771 11.8582 16.5C11.8582 15.8229 12.0291 15.1979 12.3709 14.625C12.7127 14.0521 13.1728 13.5964 13.7512 13.2578C14.3297 12.9193 14.9607 12.75 15.6443 12.75Z" fill="white"/>
<path d="M15.0133 15.875V14H16.2753V15.875H18.1683V17.125H16.2753V19H15.0133V17.125H13.1202V15.875H15.0133Z" fill="white"/>
</svg>
