<svg width="120" height="120" viewBox="0 0 120 120" fill="none" xmlns="http://www.w3.org/2000/svg">
<circle cx="60" cy="60" r="60" fill="#EFF2FE"/>
<g clip-path="url(#clip0)">
<path d="M92.5246 110.018V118.31C92.5246 119.244 91.7685 120 90.835 120H29.1626C28.229 120 27.4729 119.244 27.4729 118.31V110.018C27.4729 103.642 31.2641 98.1485 36.7153 95.6711C34.4911 93.9014 31.101 91.5228 28.6346 86.4054C25.1993 79.2882 25.7873 70.8919 30.1637 64.3195C32.5419 60.7501 33.8091 56.5598 33.8091 52.2723V43.1207C33.8091 31.4557 43.2649 22 54.9298 22H65.0677C76.7327 22 86.1884 31.4557 86.1884 43.1207C86.1884 52.8123 85.9517 54.7102 87.1199 58.5641C88.7683 64.0135 90.9457 64.6877 92.6239 70.2333C95.2621 78.9507 92.3438 88.4577 85.1535 94.1821L83.2822 95.6711C88.7335 98.1485 92.5246 103.642 92.5246 110.018Z" fill="#FFDFBA"/>
<path d="M79.311 52.8912C80.208 52.9423 80.9103 53.6794 80.9103 54.5779V64.6917C80.9103 73.4082 75.5773 80.8786 67.995 84.0171C54.2841 89.7085 39.0913 79.5978 39.0913 64.6917V54.7249C39.0913 53.7345 39.9395 52.952 40.9258 53.0413C51.061 53.9603 61.0416 51.4009 69.4225 45.7549C70.3757 45.1128 71.6881 45.5885 71.9891 46.6977C73.0316 50.5404 75.8751 52.6954 79.311 52.8912Z" fill="#FFEBD2"/>
<path d="M85.1545 94.1821L83.2832 95.6711C81.3 94.7713 79.0971 94.2687 76.7759 94.2687C71.9543 94.2687 68.0256 90.3751 68.0256 85.5374V84.0948L67.994 84.0167C75.5763 80.8781 80.9093 73.4078 80.9093 64.6912V54.5774C80.9093 53.6789 80.207 52.9418 79.31 52.8907C75.8952 52.6962 73.0374 50.5647 71.9881 46.6975C71.6871 45.5882 70.3747 45.1126 69.4215 45.7547C61.0461 51.3968 51.0661 53.9605 40.9248 53.0411C39.9385 52.9517 39.0903 53.7343 39.0903 54.7246V64.6915C39.0903 73.408 44.4233 80.8784 52.0056 84.0169L51.9739 84.095V85.5376C51.9739 90.3744 48.0463 94.2689 43.2236 94.2689C40.9025 94.2689 38.6996 94.7715 36.7163 95.6713L34.845 94.1823C25.7608 86.9438 23.7381 73.9708 30.1647 64.3197C32.5429 60.7503 33.8101 56.56 33.8101 52.2725V43.1207C33.8101 31.4562 43.2663 22 54.9308 22H65.0687C76.7333 22 86.1894 31.4562 86.1894 43.1207V52.2723C86.1894 56.5547 87.4567 60.7501 89.8349 64.3195C96.2849 74.0059 94.2043 86.9774 85.1545 94.1821Z" fill="#42434D"/>
<path d="M68.2644 87.5618C63.0609 89.7399 57.3425 89.9089 51.7354 87.5618C52.0217 86.3735 51.974 85.6039 51.974 84.0938L52.0057 84.0156C57.092 86.1268 62.8979 86.1311 67.9941 84.0156L68.0258 84.0938C68.0258 85.6045 67.978 86.3739 68.2644 87.5618Z" fill="#FFD6A6"/>
<path d="M74.6108 24.273C76.7677 25.3671 75.8303 28.6591 73.4226 28.4313C72.7587 28.3683 72.0858 28.3362 71.4055 28.3362H61.2676C49.6031 28.3362 40.1469 37.7924 40.1469 49.4569V52.0269C40.1469 53.5442 39.0909 53.4952 39.0909 54.7244C39.0909 65.8808 39.1361 65.1745 38.9724 65.6558C37.3155 70.5301 35.3257 71.2355 33.7114 76.5695C32.8322 79.4749 32.5724 82.4669 32.877 85.3703C33.1255 87.7401 29.8259 88.8736 28.6361 86.4054C25.2254 79.3391 25.7595 70.936 30.1653 64.3195C32.5435 60.7501 33.8107 56.5598 33.8107 52.2723V43.1207C33.8107 31.4562 43.2669 22 54.9314 22H65.0693C68.5029 22 71.7449 22.8193 74.6108 24.273Z" fill="#4D4E59"/>
<path d="M55.9923 78.6984C59.1475 80.8104 56.7427 85.6956 53.16 84.4383C45.2849 81.6749 39.0913 74.3251 39.0913 64.6911V54.7242C39.0913 53.7337 39.9404 52.9522 40.9267 53.0409C41.736 53.1144 42.6248 53.1723 43.5839 53.2017C45.3198 53.2545 46.6948 54.6879 46.6948 56.4247V61.312C46.6948 68.6675 50.4449 74.9851 55.9923 78.6984Z" fill="#FFF3E4"/>
<path d="M92.5223 109.973V118.31C92.5223 119.244 91.7663 120 90.8328 120H29.1665C28.2331 120 27.4771 119.244 27.4771 118.31V109.973C27.4771 101.263 34.6025 94.3554 43.3118 94.271C46.1917 94.2403 48.8013 92.8226 50.4013 90.5393C57.7425 98.6974 56.0537 96.8204 58.7431 99.8104C59.4147 100.556 60.5847 100.556 61.2562 99.8104C63.6678 97.1292 61.6991 99.317 69.5981 90.5393C71.1936 92.8165 73.7996 94.2403 76.6876 94.271C85.3969 94.3554 92.5223 101.263 92.5223 109.973Z" fill="#D6F4FC"/>
<path d="M73.3217 93.5658C73.2955 93.6216 71.2111 103.104 71.2244 103.043C70.9494 104.291 69.3706 104.693 68.5328 103.728C62.9877 97.3427 63.7442 98.1754 63.1826 97.6689L69.5985 90.5393C70.5277 91.8658 71.8159 92.9196 73.3217 93.5658Z" fill="#E8F8FC"/>
<path d="M50.4019 90.5393L56.6657 97.5L51.4699 103.657C50.6395 104.641 49.0412 104.247 48.7642 102.989C48.7509 102.929 46.7051 93.6212 46.6787 93.5654C48.1845 92.9194 49.4727 91.8656 50.4019 90.5393Z" fill="#E8F8FC"/>
<path d="M47.7762 98.5134C39.4175 98.8935 32.7567 105.793 32.7567 114.245V120.002H29.1665C28.2335 120.002 27.4771 119.245 27.4771 118.312V109.987C27.4771 101.275 34.6052 94.3621 43.3173 94.2723C44.5086 94.2601 45.6445 94.01 46.6781 93.5674C46.7045 93.6231 47.7629 98.4532 47.7762 98.5134Z" fill="#E8F8FC"/>
<path d="M72.2231 98.5134C80.5819 98.8935 87.2427 105.793 87.2427 114.245V120.002H90.8329C91.7659 120.002 92.5223 119.245 92.5223 118.312V109.987C92.5223 101.275 85.3942 94.3621 76.6821 94.2723C75.4908 94.2601 74.3549 94.01 73.3213 93.5674C73.2951 93.6231 72.2364 98.4532 72.2231 98.5134Z" fill="#BDEFFC"/>
<path d="M55.6768 63.0735C55.6768 65.0634 55.6768 66.6765 52.7945 66.6765C49.9121 66.6765 49.9121 65.0634 49.9121 63.0735C49.9121 61.0837 51.2026 59.4706 52.7945 59.4706C54.3863 59.4706 55.6768 61.0837 55.6768 63.0735Z" fill="#353644"/>
<path d="M62.3166 71.5159L60.9978 65.5144C60.9022 65.0792 60.4278 65.0792 60.3322 65.5144L59.0134 71.5159C58.9676 71.7241 59.0424 71.9451 59.1914 72.042L60.5102 72.8993C60.6077 72.9627 60.7223 72.9627 60.8198 72.8993L62.1386 72.042C62.2876 71.9451 62.3624 71.7241 62.3166 71.5159Z" fill="#FFD6A6"/>
<path d="M61.0003 80.0001C63.1273 79.9415 65.7819 78.2342 66.9288 77.4219C67.1455 77.2684 67.0585 76.9451 66.7947 76.9144C65.5422 76.7688 62.8852 76.4897 61.0003 76.5C58.9603 76.5112 56.0787 76.7828 54.7388 76.9209C54.4702 76.9486 54.3809 77.2786 54.6037 77.4311C55.8381 78.2759 58.7272 80.0626 61.0003 80.0001Z" fill="#FFAA64"/>
<path d="M71.5298 63.0735C71.5298 65.0634 71.5298 66.6765 68.6475 66.6765C65.7651 66.6765 65.7651 65.0634 65.7651 63.0735C65.7651 61.0837 67.0556 59.4706 68.6475 59.4706C70.2394 59.4706 71.5298 61.0837 71.5298 63.0735Z" fill="#353644"/>
<circle opacity="0.1" cx="67.9265" cy="62.3529" r="1.44118" fill="white"/>
<ellipse opacity="0.1" cx="53.5149" cy="62.3529" rx="1.44117" ry="1.44118" fill="white"/>
<path d="M47 57.785C47 57.6025 47.0721 57.4278 47.2112 57.3096C47.799 56.8101 49.572 55.5 52 55.5C54.428 55.5 56.201 56.8101 56.7888 57.3096C56.9279 57.4278 57 57.6025 57 57.785C57 58.3197 56.4047 58.6702 55.9163 58.4524C54.9549 58.0239 53.4774 57.5 52 57.5C50.5226 57.5 49.0451 58.0239 48.0837 58.4524C47.5953 58.6702 47 58.3197 47 57.785Z" fill="#353644"/>
<path d="M64.3999 57.785C64.3999 57.6025 64.4721 57.4278 64.6111 57.3096C65.1989 56.8101 66.9719 55.5 69.3999 55.5C71.8279 55.5 73.6009 56.8101 74.1887 57.3096C74.3278 57.4278 74.3999 57.6025 74.3999 57.785C74.3999 58.3197 73.8046 58.6702 73.3162 58.4524C72.3548 58.0239 70.8773 57.5 69.3999 57.5C67.9225 57.5 66.445 58.0239 65.4836 58.4524C64.9952 58.6702 64.3999 58.3197 64.3999 57.785Z" fill="#353644"/>
</g>
<defs>
<clipPath id="clip0">
<rect width="98" height="98" fill="white" transform="translate(11 22)"/>
</clipPath>
</defs>
</svg>
