<svg width="120" height="120" viewBox="0 0 120 120" fill="none" xmlns="http://www.w3.org/2000/svg">
<circle cx="60" cy="60" r="60" fill="#EFF2FE"/>
<g clip-path="url(#clip0)">
<path d="M92.5223 109.973V118.31C92.5223 119.244 91.7663 120 90.8328 120H29.1665C28.2331 120 27.4771 119.244 27.4771 118.31V109.973C27.4771 101.264 34.6025 94.3556 43.3118 94.2711C46.1917 94.2405 48.8013 92.8228 50.4013 90.5395C52.1503 88.0407 51.9746 85.7901 51.9746 84.0983L52.0063 84.0202C44.4247 80.882 39.0923 73.4123 39.0923 64.6967C39.0923 64.6967 39.0923 64.458 39.0923 64.0356C37.3061 64.0356 35.7781 63.2044 34.8221 61.9111C34.8221 61.909 34.82 61.909 34.82 61.9069C34.2502 61.187 33.8126 60.0398 33.8126 58.8531V38.271C33.8126 35.1222 36.3659 32.5689 39.5146 32.5689C42.0616 26.2055 48.224 22.0096 55.1107 22.0096C65.1602 22.0096 71.6189 21.9345 72.1577 22.2039C72.2844 22.2232 73.4491 22.4305 73.5409 22.4764C75.2114 22.8603 77.0595 23.712 77.1438 23.7963C82.6325 26.5586 86.3979 32.2437 86.3979 38.8074V58.5448C86.3979 61.5774 83.9397 64.0356 80.9071 64.0356V64.6967C80.9071 73.4123 75.5746 80.882 67.9931 84.0202L68.0248 84.0983C68.0248 85.7418 67.8349 88.0207 69.5981 90.5395C71.1936 92.8167 73.7996 94.2405 76.6876 94.2711C85.3969 94.3556 92.5223 101.264 92.5223 109.973Z" fill="#FFDFBA"/>
<path d="M86.3967 38.8074V58.5448C86.3967 61.5774 83.9385 64.0357 80.9059 64.0357V52.3423C80.9059 51.449 80.2111 50.7098 79.3198 50.657C69.4176 50.0665 59.5024 47.0538 50.5732 41.4113C49.6018 40.7967 48.3241 41.3036 48.0284 42.4144C47.5871 44.0849 46.5945 46.2242 44.3707 47.5631C42.3254 48.7944 40.7421 48.5511 40.147 48.7965C39.524 49.0457 39.091 49.6539 39.091 50.3592V64.0357C37.3048 64.0357 35.7769 63.2044 34.8209 61.9111C34.8209 61.909 34.8188 61.909 34.8188 61.9069C34.4401 61.4286 34.0623 60.6421 33.9064 59.8373C33.7706 59.1467 33.8114 60.705 33.8114 38.271C33.8114 35.1222 36.3646 32.5689 39.5134 32.5689C42.0472 26.2382 48.1915 22.0096 55.1095 22.0096C65.159 22.0096 71.6177 21.9345 72.1564 22.2039C73.795 22.4523 75.4102 22.9684 76.699 23.5809C76.7242 23.5933 77.126 23.7798 77.1425 23.7963C82.6312 26.5586 86.3967 32.2437 86.3967 38.8074Z" fill="#42434D"/>
<path d="M92.5223 109.973V118.31C92.5223 119.244 91.7663 120 90.8328 120H29.1665C28.2331 120 27.4771 119.244 27.4771 118.31V109.973C27.4771 101.263 34.6025 94.3554 43.3118 94.271C46.1917 94.2403 48.8013 92.8226 50.4013 90.5393C57.7425 98.6974 56.0537 96.8204 58.7431 99.8104C59.4147 100.556 60.5847 100.556 61.2562 99.8104C63.6678 97.1292 61.6991 99.317 69.5981 90.5393C71.1936 92.8165 73.7996 94.2403 76.6876 94.271C85.3969 94.3554 92.5223 101.263 92.5223 109.973Z" fill="#D6F4FC"/>
<path d="M73.3217 93.5658C73.2955 93.6216 71.2111 103.104 71.2244 103.043C70.9494 104.291 69.3706 104.693 68.5328 103.728C62.9877 97.3427 63.7442 98.1754 63.1826 97.6689L69.5985 90.5393C70.5277 91.8658 71.8159 92.9196 73.3217 93.5658Z" fill="#E8F8FC"/>
<path d="M50.4019 90.5393L56.6657 97.5L51.4699 103.657C50.6395 104.641 49.0412 104.247 48.7642 102.989C48.7509 102.929 46.7051 93.6212 46.6787 93.5654C48.1845 92.9194 49.4727 91.8656 50.4019 90.5393Z" fill="#E8F8FC"/>
<path d="M80.9056 64.6964C80.9056 76.2474 71.5399 85.6038 59.9982 85.6038C48.4569 85.6038 39.0908 76.2478 39.0908 64.6964C39.0908 64.3583 39.0908 49.955 39.0908 50.3598C39.0908 49.4614 39.793 48.7244 40.6899 48.6733C44.1113 48.4784 46.9919 46.335 48.029 42.4135C48.3228 41.3027 49.6015 40.7967 50.573 41.4104C59.2145 46.8693 69.0604 50.0443 79.3196 50.6565C80.2114 50.7097 80.9056 51.4489 80.9056 52.3424V64.6964Z" fill="#FFEBD2"/>
<path d="M76.0265 28.3453H61.4463C54.9945 28.3453 49.1489 32.0369 46.3507 37.7769C46.0318 38.4316 45.4151 38.8751 44.7013 39.0208C42.1037 39.553 40.1481 41.8507 40.1481 44.6066V48.7966C39.5251 49.0458 39.0922 49.654 39.0922 50.3593V60.3886C39.0922 62.7612 35.9996 63.6917 34.7249 61.7782C34.4347 61.3917 34.0634 60.5972 33.9498 60.0296C33.7591 59.2099 33.8126 60.7959 33.8126 38.2711C33.8126 35.1223 36.3658 32.569 39.5146 32.569C42.0718 26.18 48.2549 22.0097 55.1107 22.0097C65.0924 22.0097 71.618 21.9341 72.1576 22.204C74.1835 22.5111 76.0422 23.2572 76.3138 23.4078C76.3801 23.4357 77.1122 23.7649 77.1437 23.7964C79.4182 24.9452 78.5798 28.358 76.0265 28.3453Z" fill="#4D4E59"/>
<path d="M68.2628 87.5672C63.0598 89.7451 57.3419 89.9141 51.7354 87.5672C52.0217 86.379 51.974 85.6095 51.974 84.0995L52.0057 84.0214C57.0915 86.1324 62.8968 86.1366 67.9925 84.0214L68.0242 84.0995C68.0242 85.6101 67.9764 86.3795 68.2628 87.5672Z" fill="#FFD6A6"/>
<path d="M47.7762 98.5134C39.4175 98.8935 32.7567 105.793 32.7567 114.245V120.002H29.1665C28.2335 120.002 27.4771 119.245 27.4771 118.312V109.987C27.4771 101.275 34.6052 94.3621 43.3173 94.2723C44.5086 94.2601 45.6445 94.01 46.6781 93.5674C46.7045 93.6231 47.7629 98.4532 47.7762 98.5134Z" fill="#E8F8FC"/>
<path d="M72.2231 98.5134C80.5819 98.8935 87.2427 105.793 87.2427 114.245V120.002H90.8329C91.7659 120.002 92.5223 119.245 92.5223 118.312V109.987C92.5223 101.275 85.3942 94.3621 76.6821 94.2723C75.4908 94.2601 74.3549 94.01 73.3213 93.5674C73.2951 93.6231 72.2364 98.4532 72.2231 98.5134Z" fill="#BDEFFC"/>
<path d="M50.535 99.4091C50.8496 100.839 51.1854 102.361 51.4705 103.656C50.6401 104.64 49.0419 104.247 48.7648 102.989C47.9528 99.3016 46.6965 93.6032 46.6787 93.5656C48.1845 92.9194 49.4727 91.8656 50.4019 90.5393L52.2055 92.5456C50.6553 94.4758 49.9986 96.9784 50.535 99.4091Z" fill="#F1FAFC"/>
<path d="M55.3868 46.0605C55.0155 49.0537 53.7028 51.7389 51.5132 53.3661C47.6147 56.2637 45.4264 60.9257 45.4264 65.7832V71.0326C45.4264 74.1641 41.4405 74.7322 40.4494 72.1257C39.5715 69.8172 39.0908 67.3132 39.0908 64.697V50.3605C39.0908 49.4621 39.793 48.725 40.6899 48.6739C44.1208 48.4784 46.9947 46.3268 48.0293 42.4138C48.3228 41.3038 49.5996 40.7967 50.5705 41.4098C51.6382 42.0843 52.7999 42.7711 54.0548 43.4503C54.9965 43.9605 55.5185 44.998 55.3868 46.0605Z" fill="#FFF3E4"/>
<path d="M63.1832 97.6689L66.3362 120H53.665L56.666 97.5L58.7449 99.8093C59.4161 100.555 60.585 100.555 61.2561 99.8093L63.1832 97.6689Z" fill="#FE4F60"/>
<path d="M58.8729 99.9519L56.1993 120H53.665L56.666 97.5L58.8729 99.9519Z" fill="#E84857"/>
<path d="M55.6768 63.0735C55.6768 65.0634 55.6768 66.6765 52.7945 66.6765C49.9121 66.6765 49.9121 65.0634 49.9121 63.0735C49.9121 61.0837 51.2026 59.4706 52.7945 59.4706C54.3863 59.4706 55.6768 61.0837 55.6768 63.0735Z" fill="#353644"/>
<path d="M62.3166 71.5159L60.9978 65.5144C60.9022 65.0792 60.4278 65.0792 60.3322 65.5144L59.0134 71.5159C58.9676 71.7241 59.0424 71.9451 59.1914 72.042L60.5102 72.8993C60.6077 72.9627 60.7223 72.9627 60.8198 72.8993L62.1386 72.042C62.2876 71.9451 62.3624 71.7241 62.3166 71.5159Z" fill="#FFD6A6"/>
<path d="M61.0003 80.0001C63.1273 79.9415 65.7819 78.2342 66.9288 77.4219C67.1455 77.2684 67.0585 76.9451 66.7947 76.9144C65.5422 76.7688 62.8852 76.4897 61.0003 76.5C58.9603 76.5112 56.0787 76.7828 54.7388 76.9209C54.4702 76.9486 54.3809 77.2786 54.6037 77.4311C55.8381 78.2759 58.7272 80.0626 61.0003 80.0001Z" fill="#FFAA64"/>
<path d="M71.5298 63.0735C71.5298 65.0634 71.5298 66.6765 68.6475 66.6765C65.7651 66.6765 65.7651 65.0634 65.7651 63.0735C65.7651 61.0837 67.0556 59.4706 68.6475 59.4706C70.2394 59.4706 71.5298 61.0837 71.5298 63.0735Z" fill="#353644"/>
<circle opacity="0.1" cx="67.9265" cy="62.3529" r="1.44118" fill="white"/>
<ellipse opacity="0.1" cx="53.5149" cy="62.3529" rx="1.44117" ry="1.44118" fill="white"/>
<path d="M47 57.785C47 57.6025 47.0721 57.4278 47.2112 57.3096C47.799 56.8101 49.572 55.5 52 55.5C54.428 55.5 56.201 56.8101 56.7888 57.3096C56.9279 57.4278 57 57.6025 57 57.785C57 58.3197 56.4047 58.6702 55.9163 58.4524C54.9549 58.0239 53.4774 57.5 52 57.5C50.5226 57.5 49.0451 58.0239 48.0837 58.4524C47.5953 58.6702 47 58.3197 47 57.785Z" fill="#353644"/>
<path d="M64.3999 57.785C64.3999 57.6025 64.4721 57.4278 64.6111 57.3096C65.1989 56.8101 66.9719 55.5 69.3999 55.5C71.8279 55.5 73.6009 56.8101 74.1887 57.3096C74.3278 57.4278 74.3999 57.6025 74.3999 57.785C74.3999 58.3197 73.8046 58.6702 73.3162 58.4524C72.3548 58.0239 70.8773 57.5 69.3999 57.5C67.9225 57.5 66.445 58.0239 65.4836 58.4524C64.9952 58.6702 64.3999 58.3197 64.3999 57.785Z" fill="#353644"/>
</g>
<defs>
<clipPath id="clip0">
<rect width="98" height="98" fill="white" transform="translate(11 22)"/>
</clipPath>
</defs>
</svg>
