<svg width="36" height="36" viewBox="0 0 36 36" fill="none" xmlns="http://www.w3.org/2000/svg">
<path d="M19.7757 3L18.7375 3.51809L3.77884 15.4821C3.06605 15.835 2.55313 16.3839 2.24005 17.1288C1.93448 17.8943 1.92064 18.6588 2.19852 19.4222L4.13614 24.7458C4.41401 25.5092 4.91226 26.0757 5.63089 26.445C6.35702 26.835 7.10652 26.9361 7.87938 26.7483L12.3196 25.6579L13.8855 29.9601C14.1784 30.7648 14.7188 31.3509 15.5069 31.7184C16.323 32.099 17.1335 32.1428 17.9382 31.8499L20.9095 30.7685C21.7142 30.4756 22.2966 29.9248 22.6565 29.1161C23.0446 28.3206 23.0922 27.5205 22.7993 26.7157L21.5714 23.3421L26.7151 22.0658L19.7757 3ZM18.6059 5.94945L23.9231 20.5583L7.37506 24.6886C7.11995 24.758 6.86198 24.7234 6.60118 24.5847C6.36851 24.459 6.20712 24.2724 6.117 24.0248L4.17938 18.7012C4.08926 18.4536 4.08918 18.1966 4.17915 17.9302C4.29727 17.6769 4.47637 17.4949 4.71647 17.3841L18.6059 5.94945ZM19.5117 23.8464L20.8185 27.4367C20.9236 27.7256 20.9171 27.9967 20.799 28.25C20.6809 28.5033 20.4774 28.6825 20.1885 28.7876L17.2172 29.8691C16.9284 29.9742 16.6573 29.9677 16.404 29.8496C16.1507 29.7315 15.9715 29.528 15.8663 29.2391L14.3681 25.1227L19.5117 23.8464Z" fill="#8181A5"/>
<path d="M9.63516 25.0114L5.85363 14.6217L7.83449 13.9007L11.616 24.2904L9.63516 25.0114Z" fill="#8181A5"/>
<path d="M24.585 7.23163L27.7467 3.46373C27.9961 3.16645 28.4393 3.12767 28.7366 3.37712L29.2749 3.82878C29.5721 4.07823 29.6109 4.52144 29.3615 4.81872L26.1998 8.58662C25.9504 8.8839 25.5072 8.92267 25.2099 8.67322L24.6716 8.22156C24.3743 7.97211 24.3356 7.52891 24.585 7.23163Z" fill="#8181A5"/>
<path d="M28.5756 15.1261L33.4196 15.9803C33.8017 16.0476 34.0569 16.4121 33.9895 16.7943L33.8675 17.4862C33.8001 17.8684 33.4357 18.1236 33.0535 18.0562L28.2096 17.2021C27.8274 17.1347 27.5722 16.7703 27.6396 16.3881L27.7616 15.6961C27.829 15.3139 28.1935 15.0588 28.5756 15.1261Z" fill="#8181A5"/>
<path d="M32.0662 9.03265L27.4442 10.7149C27.0795 10.8476 26.8915 11.2509 27.0242 11.6155L27.2645 12.2758C27.3973 12.6405 27.8005 12.8285 28.1652 12.6958L32.7872 11.0135C33.1518 10.8808 33.3399 10.4776 33.2071 10.1129L32.9668 9.45261C32.8341 9.08794 32.4309 8.89992 32.0662 9.03265Z" fill="#8181A5"/>
</svg>
