<svg width="68" height="68" viewBox="0 0 68 68" fill="none" xmlns="http://www.w3.org/2000/svg">
<path fill-rule="evenodd" clip-rule="evenodd" d="M31.0364 1.59853C28.4885 0.543181 25.7578 0 23 0V19C23 20.1046 23.8954 21 25 21H42C43.1046 21 44.0099 20.1026 43.9048 19.003C43.7068 16.9301 43.2012 14.8943 42.4015 12.9636C41.3461 10.4158 39.7993 8.10079 37.8493 6.15076C35.8992 4.20073 33.5842 2.65388 31.0364 1.59853ZM35.889 27.9959C36.0115 26.8982 35.1046 26 34 26H20C18.8954 26 18 25.1046 18 24V10C18 8.89543 17.1018 7.98851 16.0041 8.11099C13.1502 8.4294 10.4035 9.42742 7.99974 11.0335C5.03966 13.0114 2.73255 15.8226 1.37018 19.1117C0.00779894 22.4008 -0.348661 26.02 0.345873 29.5116C1.04041 33.0033 2.75474 36.2106 5.27209 38.7279C7.78943 41.2453 10.9967 42.9596 14.4884 43.6541C17.98 44.3487 21.5992 43.9922 24.8883 42.6298C28.1774 41.2675 30.9886 38.9604 32.9665 36.0003C34.5726 33.5965 35.5706 30.8498 35.889 27.9959ZM24 65C24 63.8954 24.8954 63 26 63H66C67.1046 63 68 63.8954 68 65V66C68 67.1046 67.1046 68 66 68H26C24.8954 68 24 67.1046 24 66V65ZM58 31C56.8954 31 56 31.8954 56 33V57C56 58.1046 56.8954 59 58 59H66C67.1046 59 68 58.1046 68 57V33C68 31.8954 67.1046 31 66 31H58ZM40 42C40 40.8954 40.8954 40 42 40H50C51.1046 40 52 40.8954 52 42V57C52 58.1046 51.1046 59 50 59H42C40.8954 59 40 58.1046 40 57V42ZM26 48C24.8954 48 24 48.8954 24 50V57C24 58.1046 24.8954 59 26 59H34C35.1046 59 36 58.1046 36 57V50C36 48.8954 35.1046 48 34 48H26Z" fill="#5E81F4"/>
</svg>
