<svg width="32" height="32" viewBox="0 0 32 32" fill="none" xmlns="http://www.w3.org/2000/svg">
<mask id="mask0" mask-type="alpha" maskUnits="userSpaceOnUse" x="0" y="0" width="32" height="32">
<path fill-rule="evenodd" clip-rule="evenodd" d="M31.5 0.5H0.5V31.5H17.0586C15.2903 29.6962 14.2 27.2255 14.2 24.5C14.2 18.9772 18.6772 14.5 24.2 14.5C27.0798 14.5 29.6753 15.7173 31.5 17.6655V0.5ZM31.5 31.3345C31.4478 31.3903 31.3949 31.4454 31.3414 31.5H31.5V31.3345Z" fill="#C4C4C4"/>
</mask>
<g mask="url(#mask0)">
<path d="M15.5 0.375C12.8516 0.375 10.3906 1.04297 8.11719 2.37891C5.91406 3.66797 4.16797 5.41406 2.87891 7.61719C1.54297 9.89062 0.875 12.3516 0.875 15C0.875 17.6484 1.54297 20.1094 2.87891 22.3828C4.16797 24.5859 5.91406 26.332 8.11719 27.6211C10.3906 28.957 12.8516 29.625 15.5 29.625C18.1484 29.625 20.6094 28.957 22.8828 27.6211C25.0859 26.332 26.832 24.5859 28.1211 22.3828C29.457 20.1094 30.125 17.6484 30.125 15C30.125 12.3516 29.457 9.89062 28.1211 7.61719C26.832 5.41406 25.0859 3.66797 22.8828 2.37891C20.6094 1.04297 18.1484 0.375 15.5 0.375ZM15.5 2.625C17.75 2.625 19.8359 3.1875 21.7578 4.3125C23.6094 5.41406 25.0859 6.89062 26.1875 8.74219C27.3125 10.6641 27.875 12.75 27.875 15C27.875 17.25 27.3125 19.3359 26.1875 21.2578C25.0859 23.1094 23.6094 24.5859 21.7578 25.6875C19.8359 26.8125 17.75 27.375 15.5 27.375C13.25 27.375 11.1641 26.8125 9.24219 25.6875C7.39062 24.5859 5.91406 23.1094 4.8125 21.2578C3.6875 19.3359 3.125 17.25 3.125 15C3.125 12.75 3.6875 10.6641 4.8125 8.74219C5.91406 6.89062 7.39062 5.41406 9.24219 4.3125C11.1641 3.1875 13.25 2.625 15.5 2.625ZM15.5 6C14.4922 6 13.5547 6.25781 12.6875 6.77344C11.8203 7.26562 11.1289 7.94531 10.6133 8.8125C10.1211 9.67969 9.875 10.6172 9.875 11.625C9.875 12.4453 10.0508 13.2305 10.4023 13.9805C10.7539 14.707 11.2461 15.3398 11.8789 15.8789C10.5898 16.5352 9.55859 17.4961 8.78516 18.7617C8.01172 20.0039 7.625 21.375 7.625 22.875H9.875C9.875 21.8438 10.1211 20.9062 10.6133 20.0625C11.1289 19.1953 11.8086 18.5156 12.6523 18.0234C13.5195 17.5078 14.4688 17.25 15.5 17.25C16.5312 17.25 17.4688 17.5078 18.3125 18.0234C19.1797 18.5156 19.8594 19.1953 20.3516 20.0625C20.8672 20.9062 21.125 21.8438 21.125 22.875H23.375C23.375 21.375 22.9883 20.0039 22.2148 18.7617C21.4414 17.4961 20.4102 16.5352 19.1211 15.8789C19.7539 15.3398 20.2461 14.707 20.5977 13.9805C20.9492 13.2305 21.125 12.4453 21.125 11.625C21.125 10.6172 20.8672 9.67969 20.3516 8.8125C19.8594 7.94531 19.1797 7.26562 18.3125 6.77344C17.4453 6.25781 16.5078 6 15.5 6ZM15.5 8.25C16.4375 8.25 17.2344 8.57812 17.8906 9.23438C18.5469 9.89062 18.875 10.6875 18.875 11.625C18.875 12.5625 18.5469 13.3594 17.8906 14.0156C17.2344 14.6719 16.4375 15 15.5 15C14.5625 15 13.7656 14.6719 13.1094 14.0156C12.4531 13.3594 12.125 12.5625 12.125 11.625C12.125 10.6875 12.4531 9.89062 13.1094 9.23438C13.7656 8.57812 14.5625 8.25 15.5 8.25Z" fill="#5E81F4"/>
</g>
<path d="M23.5938 17.5V19.5938C23.1146 19.6771 22.5521 19.9167 21.9062 20.3125L20.4062 18.8125L19 20.1875L20.5 21.6875C20.1458 22.1458 19.9167 22.75 19.8125 23.5H17.5V25.5H19.5938C19.6354 25.7708 19.7292 26.0729 19.875 26.4062C19.9583 26.5938 20.1042 26.8854 20.3125 27.2812L18.8125 28.8125L20.1875 30.1875L21.6875 28.6875C22.3333 29.0833 22.9062 29.3229 23.4062 29.4062V31.5H25.4062V29.4062C25.8854 29.3229 26.4479 29.0833 27.0938 28.6875L28.5938 30.1875L30 28.8125L28.5 27.3125C28.8542 26.8542 29.0833 26.25 29.1875 25.5H31.5V23.5H29.4062C29.3646 23.2292 29.2708 22.9271 29.125 22.5938C29.0417 22.4062 28.8958 22.1146 28.6875 21.7188L30.1875 20.1875L28.8125 18.8125L27.3125 20.3125C26.6667 19.9167 26.0938 19.6771 25.5938 19.5938V17.5H23.5938ZM24.5 21.5C25.3542 21.5 26.0625 21.7917 26.625 22.375C27.2083 22.9375 27.5 23.6458 27.5 24.5C27.5 25.3542 27.2083 26.0729 26.625 26.6562C26.0625 27.2188 25.3542 27.5 24.5 27.5C23.6458 27.5 22.9271 27.2188 22.3438 26.6562C21.7812 26.0729 21.5 25.3542 21.5 24.5C21.5 23.6458 21.7812 22.9375 22.3438 22.375C22.9271 21.7917 23.6458 21.5 24.5 21.5ZM24.5 23.5C24.375 23.5 24.25 23.5312 24.125 23.5938C24.0208 23.6354 23.9167 23.7083 23.8125 23.8125C23.7083 23.9167 23.625 24.0312 23.5625 24.1562C23.5208 24.2604 23.5 24.375 23.5 24.5C23.5 24.6875 23.5625 24.8646 23.6875 25.0312C23.8125 25.1979 23.9583 25.3229 24.125 25.4062C24.25 25.4688 24.375 25.5 24.5 25.5C24.75 25.5 24.9792 25.3958 25.1875 25.1875C25.3958 24.9792 25.5 24.75 25.5 24.5C25.5 24.25 25.3958 24.0208 25.1875 23.8125C24.9792 23.6042 24.75 23.5 24.5 23.5Z" fill="#5E81F4"/>
</svg>
