<svg width="18" height="19" viewBox="0 0 18 19" fill="none"
    xmlns="http://www.w3.org/2000/svg">
    <mask id="mask0" mask-type="alpha" maskUnits="userSpaceOnUse" x="0" y="0" width="15" height="17">
        <path fill-rule="evenodd" clip-rule="evenodd" d="M15 0H0V17H7.59903C7.0279 16.0327 6.7002 14.9046 6.7002 13.7C6.7002 10.1101 9.61034 7.19995 13.2002 7.19995C13.8246 7.19995 14.4285 7.288 15 7.45235V0Z" fill="#C4C4C4"/>
    </mask>
    <g mask="url(#mask0)">
        <path d="M3.75 0.5L1.69922 2.57031L0.898438 1.75L0 2.64844L1.69922 4.32812L4.64844 1.39844L3.75 0.5ZM6.07422 1.57422V2.82422H14.8242V1.57422H6.07422ZM0.0742188 6.57422V7.82422H14.8242V6.57422H0.0742188ZM0.0742188 11.5742V12.8242H14.8242V11.5742H0.0742188Z" fill="black"/>
    </g>
    <path d="M13 8.5C12.1016 8.5 11.2682 8.72786 10.5 9.18359C9.73177 9.6263 9.11979 10.2318 8.66406 11C8.22135 11.7682 8 12.6016 8 13.5C8 14.3984 8.22135 15.2318 8.66406 16C9.11979 16.7682 9.73177 17.3737 10.5 17.8164C11.2682 18.2721 12.1016 18.5 13 18.5C13.8984 18.5 14.7318 18.2721 15.5 17.8164C16.2682 17.3737 16.8737 16.7682 17.3164 16C17.7721 15.2318 18 14.3984 18 13.5C18 12.6016 17.7721 11.7682 17.3164 11C16.8737 10.2318 16.2682 9.6263 15.5 9.18359C14.7318 8.72786 13.8984 8.5 13 8.5ZM13 9.75C13.6771 9.75 14.3021 9.91927 14.875 10.2578C15.4479 10.5964 15.9036 11.0521 16.2422 11.625C16.5807 12.1979 16.75 12.8229 16.75 13.5C16.75 14.1771 16.5807 14.8021 16.2422 15.375C15.9036 15.9479 15.4479 16.4036 14.875 16.7422C14.3021 17.0807 13.6771 17.25 13 17.25C12.3229 17.25 11.6979 17.0807 11.125 16.7422C10.5521 16.4036 10.0964 15.9479 9.75781 15.375C9.41927 14.8021 9.25 14.1771 9.25 13.5C9.25 12.8229 9.41927 12.1979 9.75781 11.625C10.0964 11.0521 10.5521 10.5964 11.125 10.2578C11.6979 9.91927 12.3229 9.75 13 9.75Z" fill="black"/>
    <path d="M12.375 12.875V11H13.625V12.875H15.5V14.125H13.625V16H12.375V14.125H10.5V12.875H12.375Z" fill="black"/>
</svg>
