<svg width="19" height="19" viewBox="0 0 19 19" fill="none" xmlns="http://www.w3.org/2000/svg">
<path d="M7.75 0.375C7.38542 0.375 7.08594 0.492188 6.85156 0.726562C6.61719 0.960938 6.5 1.26042 6.5 1.625V2.25H0.875V14.75H7.86719C7.78906 14.3464 7.75 13.9297 7.75 13.5H2.125V9.39844C2.52865 9.63281 2.94531 9.75 3.375 9.75H9C9.35156 9.26823 9.76823 8.85156 10.25 8.5H3.375C2.9974 8.5 2.69141 8.38932 2.45703 8.16797C2.23568 7.93359 2.125 7.6276 2.125 7.25V3.5H15.875V7.25C15.875 7.36719 15.8685 7.45833 15.8555 7.52344C16.2982 7.66667 16.7214 7.85547 17.125 8.08984V2.25H11.5V1.625C11.5 1.26042 11.3828 0.960938 11.1484 0.726562C10.9141 0.492188 10.6146 0.375 10.25 0.375H7.75ZM7.75 1.625H10.25V2.25H7.75V1.625ZM4.625 6V7.875H5.875V6H4.625ZM12.125 6V7.54297C12.3333 7.47786 12.5417 7.42578 12.75 7.38672C12.9583 7.33464 13.1667 7.30208 13.375 7.28906V6H12.125ZM14 8.5C13.1016 8.5 12.2682 8.72786 11.5 9.18359C10.7318 9.6263 10.1198 10.2318 9.66406 11C9.22135 11.7682 9 12.6016 9 13.5C9 14.3984 9.22135 15.2318 9.66406 16C10.1198 16.7682 10.7318 17.3737 11.5 17.8164C12.2682 18.2721 13.1016 18.5 14 18.5C14.8984 18.5 15.7318 18.2721 16.5 17.8164C17.2682 17.3737 17.8737 16.7682 18.3164 16C18.7721 15.2318 19 14.3984 19 13.5C19 12.6016 18.7721 11.7682 18.3164 11C17.8737 10.2318 17.2682 9.6263 16.5 9.18359C15.7318 8.72786 14.8984 8.5 14 8.5ZM14 9.75C14.6771 9.75 15.3021 9.91927 15.875 10.2578C16.4479 10.5964 16.9036 11.0521 17.2422 11.625C17.5807 12.1979 17.75 12.8229 17.75 13.5C17.75 14.1771 17.5807 14.8021 17.2422 15.375C16.9036 15.9479 16.4479 16.4036 15.875 16.7422C15.3021 17.0807 14.6771 17.25 14 17.25C13.3229 17.25 12.6979 17.0807 12.125 16.7422C11.5521 16.4036 11.0964 15.9479 10.7578 15.375C10.4193 14.8021 10.25 14.1771 10.25 13.5C10.25 12.8229 10.4193 12.1979 10.7578 11.625C11.0964 11.0521 11.5521 10.5964 12.125 10.2578C12.6979 9.91927 13.3229 9.75 14 9.75Z" fill="white"/>
<path d="M13.375 12.875V11H14.625V12.875H16.5V14.125H14.625V16H13.375V14.125H11.5V12.875H13.375Z" fill="white"/>
</svg>
