<svg width="36" height="36" viewBox="0 0 36 36" fill="none" xmlns="http://www.w3.org/2000/svg">
<path d="M18 6.125C16.5703 6.125 15.2461 6.47656 14.0273 7.17969C12.832 7.88281 11.8828 8.84375 11.1797 10.0625C10.4766 11.2578 10.125 12.5703 10.125 14C10.125 15.3359 10.4297 16.5781 11.0391 17.7266C11.6719 18.875 12.5273 19.8125 13.6055 20.5391C12.2695 21.125 11.0742 21.9336 10.0195 22.9648C8.98828 23.9961 8.19141 25.1797 7.62891 26.5156C7.04297 27.8984 6.75 29.3516 6.75 30.875H9C9 29.2344 9.39844 27.7344 10.1953 26.375C11.0156 24.9922 12.1055 23.9023 13.4648 23.1055C14.8477 22.2852 16.3594 21.875 18 21.875C19.6406 21.875 21.1406 22.2852 22.5 23.1055C23.8828 23.9023 24.9727 24.9922 25.7695 26.375C26.5898 27.7344 27 29.2344 27 30.875H29.25C29.25 29.3516 28.957 27.8984 28.3711 26.5156C27.8086 25.1797 27 23.9961 25.9453 22.9648C24.9141 21.9336 23.7305 21.125 22.3945 20.5391C23.4727 19.8125 24.3164 18.875 24.9258 17.7266C25.5586 16.5781 25.875 15.3359 25.875 14C25.875 12.5703 25.5234 11.2578 24.8203 10.0625C24.1172 8.84375 23.1562 7.88281 21.9375 7.17969C20.7422 6.47656 19.4297 6.125 18 6.125ZM18 8.375C19.0312 8.375 19.9688 8.63281 20.8125 9.14844C21.6797 9.64062 22.3594 10.3203 22.8516 11.1875C23.3672 12.0312 23.625 12.9688 23.625 14C23.625 15.0312 23.3672 15.9805 22.8516 16.8477C22.3594 17.6914 21.6797 18.3711 20.8125 18.8867C19.9688 19.3789 19.0312 19.625 18 19.625C16.9688 19.625 16.0195 19.3789 15.1523 18.8867C14.3086 18.3711 13.6289 17.6914 13.1133 16.8477C12.6211 15.9805 12.375 15.0312 12.375 14C12.375 12.9688 12.6211 12.0312 13.1133 11.1875C13.6289 10.3203 14.3086 9.64062 15.1523 9.14844C16.0195 8.63281 16.9688 8.375 18 8.375Z" fill="#8181A5"/>
</svg>
