<svg width="36" height="36" viewBox="0 0 36 36" fill="none" xmlns="http://www.w3.org/2000/svg">
<path d="M18 7.25C15.5625 7.25 13.2891 7.87109 11.1797 9.11328C9.14062 10.2852 7.53516 11.8906 6.36328 13.9297C5.12109 16.0391 4.5 18.3125 4.5 20.75C4.5 22.3438 4.76953 23.8906 5.30859 25.3906C5.84766 26.8203 6.60938 28.1328 7.59375 29.3281L7.91016 29.75H28.0898L28.4062 29.3281C29.3906 28.1328 30.1523 26.8203 30.6914 25.3906C31.2305 23.8906 31.5 22.3438 31.5 20.75C31.5 18.3125 30.8906 16.0391 29.6719 13.9297C28.4766 11.8906 26.8594 10.2852 24.8203 9.11328C22.7109 7.87109 20.4375 7.25 18 7.25ZM18 9.5C20.0391 9.5 21.9375 10.0156 23.6953 11.0469C25.3828 12.0312 26.7188 13.3672 27.7031 15.0547C28.7344 16.8125 29.25 18.7109 29.25 20.75C29.25 21.9922 29.0391 23.1992 28.6172 24.3711C28.2188 25.4961 27.6562 26.5391 26.9297 27.5H9.07031C8.34375 26.5391 7.78125 25.4961 7.38281 24.3711C6.96094 23.1992 6.75 21.9922 6.75 20.75C6.75 18.7109 7.26562 16.8125 8.29688 15.0547C9.28125 13.3672 10.6172 12.0312 12.3047 11.0469C14.0625 10.0156 15.9609 9.5 18 9.5ZM18 10.625C17.6953 10.625 17.4258 10.7422 17.1914 10.9766C16.9805 11.1875 16.875 11.4453 16.875 11.75C16.875 12.0547 16.9805 12.3242 17.1914 12.5586C17.4258 12.7695 17.6953 12.875 18 12.875C18.3047 12.875 18.5625 12.7695 18.7734 12.5586C19.0078 12.3242 19.125 12.0547 19.125 11.75C19.125 11.4453 19.0078 11.1875 18.7734 10.9766C18.5625 10.7422 18.3047 10.625 18 10.625ZM13.5 11.8203C13.1953 11.8203 12.9258 11.9375 12.6914 12.1719C12.4805 12.3828 12.375 12.6406 12.375 12.9453C12.375 13.25 12.4805 13.5195 12.6914 13.7539C12.9258 13.9648 13.1953 14.0703 13.5 14.0703C13.8047 14.0703 14.0625 13.9648 14.2734 13.7539C14.5078 13.5195 14.625 13.25 14.625 12.9453C14.625 12.6406 14.5078 12.3828 14.2734 12.1719C14.0625 11.9375 13.8047 11.8203 13.5 11.8203ZM22.5 11.8203C22.1953 11.8203 21.9258 11.9375 21.6914 12.1719C21.4805 12.3828 21.375 12.6406 21.375 12.9453C21.375 13.25 21.4805 13.5195 21.6914 13.7539C21.9258 13.9648 22.1953 14.0703 22.5 14.0703C22.8047 14.0703 23.0625 13.9648 23.2734 13.7539C23.5078 13.5195 23.625 13.25 23.625 12.9453C23.625 12.6406 23.5078 12.3828 23.2734 12.1719C23.0625 11.9375 22.8047 11.8203 22.5 11.8203ZM10.1953 15.125C9.89062 15.125 9.62109 15.2422 9.38672 15.4766C9.17578 15.6875 9.07031 15.9453 9.07031 16.25C9.07031 16.5547 9.17578 16.8242 9.38672 17.0586C9.62109 17.2695 9.89062 17.375 10.1953 17.375C10.5 17.375 10.7578 17.2695 10.9688 17.0586C11.2031 16.8242 11.3203 16.5547 11.3203 16.25C11.3203 15.9453 11.2031 15.6875 10.9688 15.4766C10.7578 15.2422 10.5 15.125 10.1953 15.125ZM25.4883 15.1602L19.125 18.8164C18.7734 18.6055 18.3984 18.5 18 18.5C17.3672 18.5 16.8281 18.7227 16.3828 19.168C15.9609 19.5898 15.75 20.1172 15.75 20.75C15.75 21.3828 15.9609 21.9219 16.3828 22.3672C16.8281 22.7891 17.3555 23 17.9648 23C18.5977 23 19.1367 22.7891 19.582 22.3672C20.0273 21.9219 20.25 21.3945 20.25 20.7852V20.75L26.6133 17.1289L25.4883 15.1602ZM9 19.625C8.69531 19.625 8.42578 19.7422 8.19141 19.9766C7.98047 20.1875 7.875 20.4453 7.875 20.75C7.875 21.0547 7.98047 21.3242 8.19141 21.5586C8.42578 21.7695 8.69531 21.875 9 21.875C9.30469 21.875 9.5625 21.7695 9.77344 21.5586C10.0078 21.3242 10.125 21.0547 10.125 20.75C10.125 20.4453 10.0078 20.1875 9.77344 19.9766C9.5625 19.7422 9.30469 19.625 9 19.625ZM27 19.625C26.6953 19.625 26.4258 19.7422 26.1914 19.9766C25.9805 20.1875 25.875 20.4453 25.875 20.75C25.875 21.0547 25.9805 21.3242 26.1914 21.5586C26.4258 21.7695 26.6953 21.875 27 21.875C27.3047 21.875 27.5625 21.7695 27.7734 21.5586C28.0078 21.3242 28.125 21.0547 28.125 20.75C28.125 20.4453 28.0078 20.1875 27.7734 19.9766C27.5625 19.7422 27.3047 19.625 27 19.625ZM10.1953 24.125C9.89062 24.125 9.62109 24.2422 9.38672 24.4766C9.17578 24.6875 9.07031 24.9453 9.07031 25.25C9.07031 25.5547 9.17578 25.8242 9.38672 26.0586C9.62109 26.2695 9.89062 26.375 10.1953 26.375C10.5 26.375 10.7578 26.2695 10.9688 26.0586C11.2031 25.8242 11.3203 25.5547 11.3203 25.25C11.3203 24.9453 11.2031 24.6875 10.9688 24.4766C10.7578 24.2422 10.5 24.125 10.1953 24.125ZM25.8047 24.125C25.5 24.125 25.2305 24.2422 24.9961 24.4766C24.7852 24.6875 24.6797 24.9453 24.6797 25.25C24.6797 25.5547 24.7852 25.8242 24.9961 26.0586C25.2305 26.2695 25.5 26.375 25.8047 26.375C26.1094 26.375 26.3672 26.2695 26.5781 26.0586C26.8125 25.8242 26.9297 25.5547 26.9297 25.25C26.9297 24.9453 26.8125 24.6875 26.5781 24.4766C26.3672 24.2422 26.1094 24.125 25.8047 24.125Z" fill="#8181A5"/>
</svg>
