<svg width="26" height="26" viewBox="0 0 26 26" fill="none"
    xmlns="http://www.w3.org/2000/svg">
    <path d="M28 6.36364C28 7.06654 27.4302 7.63636 26.7273 7.63636H7.63636C6.93346 7.63636 6.36364 7.06654 6.36364 6.36364V1.27273C6.36364 0.56982 6.93346 0 7.63636 0H26.7273C27.4302 0 28 0.56982 28 1.27273V6.36364Z" fill="#5E81F4"/>
    <path d="M3.81818 26.7273C3.81818 27.4302 3.24836 28 2.54545 28H1.27273C0.56982 28 0 27.4302 0 26.7273V1.27273C0 0.56982 0.56982 0 1.27273 0H2.54545C3.24836 0 3.81818 0.56982 3.81818 1.27273V26.7273Z" fill="#5E81F4"/>
    <path d="M17.1818 17.8182C17.8847 17.8182 18.4545 17.2484 18.4545 16.5455V11.4545C18.4545 10.7516 17.8847 10.1818 17.1818 10.1818H7.63636C6.93346 10.1818 6.36364 10.7516 6.36364 11.4545V16.5455C6.36364 17.2484 6.93346 17.8182 7.63636 17.8182H17.1818Z" fill="#5E81F4"/>
    <path d="M12.0909 26.7273C12.0909 27.4302 11.5211 28 10.8182 28H7.63636C6.93346 28 6.36364 27.4302 6.36364 26.7273V21.6364C6.36364 20.9335 6.93346 20.3636 7.63636 20.3636H10.8182C11.5211 20.3636 12.0909 20.9335 12.0909 21.6364V26.7273Z" fill="#5E81F4"/>
</svg>
