<svg width="17" height="16" viewBox="0 0 17 16" fill="none" xmlns="http://www.w3.org/2000/svg">
<path d="M11.1688 0.849147C11.0946 0.779659 11.0018 0.733362 10.9017 0.715955C10.8017 0.698548 10.6987 0.710792 10.6054 0.751178C10.5122 0.791565 10.4329 0.858331 10.3771 0.943256C10.3214 1.02818 10.2917 1.12756 10.2917 1.22915V3.50915C10.1425 3.51248 9.96875 3.52165 9.775 3.53915C9.13542 3.59831 8.26833 3.75831 7.36833 4.16623C5.53417 4.99748 3.64917 6.82206 3.21167 10.6496C3.19975 10.7543 3.21993 10.8603 3.26952 10.9533C3.31911 11.0464 3.39578 11.1222 3.4894 11.1708C3.58301 11.2193 3.68916 11.2383 3.7938 11.2252C3.89844 11.2121 3.99664 11.1676 4.07542 11.0975C5.88167 9.49165 7.57417 8.8004 8.79875 8.50623C9.28797 8.38602 9.78822 8.31621 10.2917 8.2979V10.6041C10.2917 10.7057 10.3214 10.8051 10.3771 10.89C10.4329 10.975 10.5122 11.0417 10.6054 11.0821C10.6987 11.1225 10.8017 11.1347 10.9017 11.1173C11.0018 11.0999 11.0946 11.0536 11.1688 10.9841L16.1688 6.29665C16.2207 6.24793 16.2621 6.18908 16.2905 6.12372C16.3188 6.05835 16.3334 5.98788 16.3334 5.91665C16.3334 5.84541 16.3188 5.77494 16.2905 5.70958C16.2621 5.64422 16.2207 5.58536 16.1688 5.53665L11.1688 0.849147V0.849147ZM10.7525 4.55915L10.7608 4.55998H10.7617H10.7613C10.8336 4.56714 10.9067 4.55906 10.9757 4.53627C11.0448 4.51347 11.1083 4.47647 11.1622 4.42764C11.2161 4.37882 11.2592 4.31925 11.2886 4.25276C11.3181 4.18628 11.3333 4.11437 11.3333 4.04165V2.43123L15.0508 5.91665L11.3333 9.40206V7.79165C11.3333 7.52915 11.1442 7.30831 10.8771 7.27498H10.8758L10.8742 7.27456L10.87 7.27415L10.8583 7.2729C10.8015 7.26731 10.7445 7.26314 10.6875 7.2604C10.5754 7.25456 10.4158 7.25123 10.215 7.2579C9.65534 7.28112 9.09939 7.36012 8.55542 7.49373C7.43875 7.76165 6.01417 8.31498 4.48125 9.43248C5.10042 6.89915 6.5075 5.69998 7.79792 5.11498C8.565 4.76748 9.3125 4.62831 9.87083 4.57665C10.1492 4.55081 10.3775 4.54748 10.5338 4.54998C10.6067 4.55102 10.6797 4.55408 10.7525 4.55915V4.55915ZM3.10417 1.33331C2.4135 1.33331 1.75112 1.60768 1.26274 2.09606C0.774367 2.58443 0.5 3.24681 0.5 3.93748V12.8958C0.5 13.5865 0.774367 14.2489 1.26274 14.7372C1.75112 15.2256 2.4135 15.5 3.10417 15.5H12.0625C12.7532 15.5 13.4155 15.2256 13.9039 14.7372C14.3923 14.2489 14.6667 13.5865 14.6667 12.8958V11.9583C14.6667 11.8202 14.6118 11.6877 14.5141 11.59C14.4164 11.4924 14.284 11.4375 14.1458 11.4375C14.0077 11.4375 13.8752 11.4924 13.7775 11.59C13.6799 11.6877 13.625 11.8202 13.625 11.9583V12.8958C13.625 13.3102 13.4604 13.7076 13.1674 14.0007C12.8743 14.2937 12.4769 14.4583 12.0625 14.4583H3.10417C2.68977 14.4583 2.29234 14.2937 1.99931 14.0007C1.70629 13.7076 1.54167 13.3102 1.54167 12.8958V3.93748C1.54167 3.52308 1.70629 3.12565 1.99931 2.83263C2.29234 2.5396 2.68977 2.37498 3.10417 2.37498H6.54167C6.6798 2.37498 6.81228 2.32011 6.90995 2.22243C7.00763 2.12476 7.0625 1.99228 7.0625 1.85415C7.0625 1.71601 7.00763 1.58354 6.90995 1.48586C6.81228 1.38819 6.6798 1.33331 6.54167 1.33331H3.10417Z" fill="#5E81F4"/>
</svg>
