<svg width="26" height="26" viewBox="0 0 26 26" fill="none"
    xmlns="http://www.w3.org/2000/svg">
    <path d="M5.6 11.55C5.6 11.3567 5.7567 11.2 5.95 11.2H9.45C9.6433 11.2 9.8 11.3567 9.8 11.55V13.65C9.8 13.8433 9.6433 14 9.45 14H5.95C5.7567 14 5.6 13.8433 5.6 13.65V11.55Z" fill="#5E81F4"/>
    <path d="M12.6 11.55C12.6 11.3567 12.7567 11.2 12.95 11.2H22.05C22.2433 11.2 22.4 11.3567 22.4 11.55V13.65C22.4 13.8433 22.2433 14 22.05 14H12.95C12.7567 14 12.6 13.8433 12.6 13.65V11.55Z" fill="#5E81F4"/>
    <path d="M5.95 15.4C5.7567 15.4 5.6 15.5567 5.6 15.75V17.85C5.6 18.0433 5.7567 18.2 5.95 18.2H9.45C9.6433 18.2 9.8 18.0433 9.8 17.85V15.75C9.8 15.5567 9.6433 15.4 9.45 15.4H5.95Z" fill="#5E81F4"/>
    <path d="M12.6 15.75C12.6 15.5567 12.7567 15.4 12.95 15.4H22.05C22.2433 15.4 22.4 15.5567 22.4 15.75V17.85C22.4 18.0433 22.2433 18.2 22.05 18.2H12.95C12.7567 18.2 12.6 18.0433 12.6 17.85V15.75Z" fill="#5E81F4"/>
    <path d="M5.95 19.6C5.7567 19.6 5.6 19.7567 5.6 19.95V22.05C5.6 22.2433 5.7567 22.4 5.95 22.4H9.45C9.6433 22.4 9.8 22.2433 9.8 22.05V19.95C9.8 19.7567 9.6433 19.6 9.45 19.6H5.95Z" fill="#5E81F4"/>
    <path d="M12.6 19.95C12.6 19.7567 12.7567 19.6 12.95 19.6H22.05C22.2433 19.6 22.4 19.7567 22.4 19.95V22.05C22.4 22.2433 22.2433 22.4 22.05 22.4H12.95C12.7567 22.4 12.6 22.2433 12.6 22.05V19.95Z" fill="#5E81F4"/>
    <path fill-rule="evenodd" clip-rule="evenodd" d="M0 1.4C0 0.626802 0.626801 0 1.4 0H26.6C27.3732 0 28 0.626801 28 1.4V26.6C28 27.3732 27.3732 28 26.6 28H1.4C0.626802 28 0 27.3732 0 26.6V1.4ZM2.8 8.75C2.8 8.5567 2.9567 8.4 3.15 8.4H24.85C25.0433 8.4 25.2 8.5567 25.2 8.75V24.85C25.2 25.0433 25.0433 25.2 24.85 25.2H3.15C2.9567 25.2 2.8 25.0433 2.8 24.85V8.75Z" fill="#5E81F4"/>
</svg>
