<svg width="12" height="12" viewBox="0 0 12 12" fill="none" xmlns="http://www.w3.org/2000/svg">
<path d="M8.09375 6L11.2188 9.125C11.4062 9.3125 11.5 9.5625 11.5 9.8125C11.5 10.0938 11.4062 10.3438 11.2188 10.5312L10.5312 11.2188C10.3125 11.4062 10.0625 11.5 9.8125 11.5C9.53125 11.5 9.3125 11.4062 9.125 11.2188L6 8.09375L2.875 11.2188C2.6875 11.4062 2.4375 11.5 2.1875 11.5C1.90625 11.5 1.65625 11.4062 1.46875 11.2188L0.78125 10.5312C0.59375 10.3438 0.5 10.0938 0.5 9.8125C0.5 9.5625 0.59375 9.3125 0.78125 9.125L3.90625 6L0.78125 2.875C0.59375 2.6875 0.5 2.46875 0.5 2.1875C0.5 1.9375 0.59375 1.6875 0.78125 1.46875L1.46875 0.78125C1.65625 0.59375 1.90625 0.5 2.1875 0.5C2.4375 0.5 2.6875 0.59375 2.875 0.78125L6 3.90625L9.125 0.78125C9.3125 0.59375 9.53125 0.5 9.8125 0.5C10.0625 0.5 10.3125 0.59375 10.5312 0.78125L11.2188 1.46875C11.4062 1.6875 11.5 1.9375 11.5 2.1875C11.5 2.46875 11.4062 2.6875 11.2188 2.875L8.09375 6Z" fill="#FF808B"/>
</svg>
