<svg width="36" height="36" viewBox="0 0 36 36" fill="none" xmlns="http://www.w3.org/2000/svg">
<mask id="mask0" mask-type="alpha" maskUnits="userSpaceOnUse" x="20" y="3" width="12" height="31">
<rect x="20.5" y="3" width="11" height="31" fill="#C4C4C4"/>
</mask>
<g mask="url(#mask0)">
<path d="M16.625 7.125H29.375V28.875H16.625V7.125Z" stroke="white" stroke-width="2.25"/>
</g>
<path d="M5.625 29.0663V7.87837L19.375 4.44087V31.6445L5.625 29.0663Z" stroke="white" stroke-width="2.25"/>
<path fill-rule="evenodd" clip-rule="evenodd" d="M16.9955 13.9334C17.1013 14.0221 17.1151 14.1798 17.0264 14.2856L13.9371 17.9672L17.0264 21.6488C17.1151 21.7546 17.1013 21.9122 16.9955 22.001L15.655 23.1259C15.5492 23.2146 15.3915 23.2008 15.3028 23.0951L12.4685 19.7174L10.0142 22.6424C9.92543 22.7481 9.76774 22.7619 9.66197 22.6732L8.3214 21.5483C8.21563 21.4596 8.20183 21.3019 8.29058 21.1961L11 17.9672L8.33485 14.791C8.2461 14.6853 8.25989 14.5276 8.36566 14.4388L9.70624 13.3139C9.81201 13.2252 9.9697 13.239 10.0584 13.3448L12.4685 16.217L15.3028 12.8393C15.3915 12.7335 15.5492 12.7197 15.655 12.8085L16.9955 13.9334Z" fill="white"/>
<path fill-rule="evenodd" clip-rule="evenodd" d="M20.5 12H24.5V14.25H20.5V12ZM20.5 17H24.5V19.25H20.5V17ZM24.5 22H20.5V24.25H24.5V22Z" fill="white"/>
</svg>
