<svg width="36" height="36" viewBox="0 0 36 36" fill="none" xmlns="http://www.w3.org/2000/svg">
<mask id="mask0" mask-type="alpha" maskUnits="userSpaceOnUse" x="2" y="5" width="28" height="21">
<path d="M2 25.5V5.5L27.4717 5L29 6.5L29.5 13L21.5 16L18 17.5L12.5 18V25L2 25.5Z" fill="#5E81F4"/>
</mask>
<g mask="url(#mask0)">
<mask id="path-2-inside-1" fill="white">
<rect x="2" y="7" width="25.4717" height="18" rx="2"/>
</mask>
<rect x="2" y="7" width="25.4717" height="18" rx="2" stroke="#8181A5" stroke-width="4.5" mask="url(#path-2-inside-1)"/>
<path d="M14.1887 16.1224L4.18846 8.125H25.2819L15.2817 16.1224C14.9622 16.378 14.5082 16.378 14.1887 16.1224Z" stroke="#8181A5" stroke-width="2.25"/>
</g>
<path d="M15.9464 30.625L17.1528 25.875H21.0536L19.8472 30.625H15.9464Z" stroke="#8181A5" stroke-width="2.25"/>
<path d="M16.5 19.125H21.375V25.875H16.5C16.0168 25.875 15.625 25.4832 15.625 25V20C15.625 19.5168 16.0168 19.125 16.5 19.125Z" stroke="#8181A5" stroke-width="2.25"/>
<path d="M21.625 25.9929V19.0071L28.375 16.5964V28.4036L21.625 25.9929Z" stroke="#8181A5" stroke-width="2.25"/>
<path d="M32.6538 19.731L33.5484 19.0384C33.9727 18.7099 34.0476 18.1175 33.7157 17.7154C33.3839 17.3133 32.7707 17.2535 32.3465 17.5822L31.4519 18.2748C31.0276 18.6033 30.9527 19.1957 31.2846 19.5977C31.6168 20.0001 32.23 20.0594 32.6538 19.731V19.731Z" fill="#8181A5"/>
<path d="M33.5494 26.4594L32.6548 25.7668C32.2305 25.4382 31.6175 25.4979 31.2856 25.9C30.9536 26.3022 31.0286 26.8945 31.4529 27.223L32.3475 27.9156C32.7717 28.2441 33.3849 28.1844 33.7167 27.7823C34.0487 27.3802 33.9737 26.7879 33.5494 26.4594Z" fill="#8181A5"/>
<path d="M33.0214 21.8105H31.9781C31.4379 21.8105 31 22.2303 31 22.748C31 23.2657 31.4379 23.6855 31.9781 23.6855H33.0214C33.5616 23.6855 33.9995 23.2657 33.9995 22.748C33.9995 22.2303 33.5616 21.8105 33.0214 21.8105Z" fill="#8181A5"/>
</svg>
