<svg width="30" height="30" viewBox="0 0 30 30" fill="none" xmlns="http://www.w3.org/2000/svg">
<rect width="30" height="30" rx="8" fill="#3f3490"/>
<g clip-path="url(#clip0_35438_109)">
<path d="M10.4725 15.6667H17.9192L14.6658 18.92C14.4058 19.18 14.4058 19.6067 14.6658 19.8667C14.9258 20.1267 15.3458 20.1267 15.6058 19.8667L19.9992 15.4733C20.2592 15.2133 20.2592 14.7933 19.9992 14.5333L15.6125 10.1333C15.3525 9.87332 14.9325 9.87332 14.6725 10.1333C14.4125 10.3933 14.4125 10.8133 14.6725 11.0733L17.9192 14.3333H10.4725C10.1058 14.3333 9.80585 14.6333 9.80585 15C9.80585 15.3667 10.1058 15.6667 10.4725 15.6667Z" fill="white"/>
</g>
<defs>
<clipPath id="clip0_35438_109">
<rect width="16" height="16" fill="white" transform="translate(7 7)"/>
</clipPath>
</defs>
</svg>
