<svg width="40" height="40" viewBox="0 0 40 40" fill="none" xmlns="http://www.w3.org/2000/svg">
<rect width="40" height="40" fill="white"/>
<rect width="40" height="40" rx="6" fill="#5E81F4"/>
<path d="M28 9H16C14.9 9 14 9.9 14 11V25C14 26.1 14.9 27 16 27H28C29.1 27 30 26.1 30 25V11C30 9.9 29.1 9 28 9ZM19.5 17.5C19.5 18.33 18.83 19 18 19H17V21H15.5V15H18C18.83 15 19.5 15.67 19.5 16.5V17.5ZM24.5 19.5C24.5 20.33 23.83 21 23 21H20.5V15H23C23.83 15 24.5 15.67 24.5 16.5V19.5ZM28.5 16.5H27V17.5H28.5V19H27V21H25.5V15H28.5V16.5ZM17 17.5H18V16.5H17V17.5ZM12 15H10V29C10 30.1 10.9 31 12 31H26V29H14C12.8954 29 12 28.1046 12 27V15ZM22 19.5H23V16.5H22V19.5Z" fill="white"/>
</svg>
