<svg width="36" height="36" viewBox="0 0 36 36" fill="none" xmlns="http://www.w3.org/2000/svg">
<path d="M14.8359 3.875L14.6602 4.78906L13.9922 8.12891C12.9844 8.52734 12.0117 9.10156 11.0742 9.85156L7.80469 8.72656L6.92578 8.44531L3.76172 13.9297L6.96094 16.7422L6.92578 17.0586C6.80859 17.6914 6.75 18.1719 6.75 18.5C6.75 18.8281 6.80859 19.3086 6.92578 19.9414L6.96094 20.2578L3.76172 23.0703L6.92578 28.5547L7.80469 28.2734L11.0742 27.1484C12.0117 27.8984 12.9844 28.4727 13.9922 28.8711L14.8359 33.125H21.1641L22.0078 28.8711C23.0156 28.4727 23.9883 27.8984 24.9258 27.1484L28.1953 28.2734L29.0742 28.5547L32.2383 23.0703L29.0391 20.2578L29.0742 19.9414C29.1914 19.3086 29.25 18.8281 29.25 18.5C29.25 18.1719 29.1914 17.6914 29.0742 17.0586L29.0391 16.7422L32.2383 13.9297L29.0742 8.44531L28.1953 8.72656L24.9258 9.85156C23.9883 9.10156 23.0156 8.52734 22.0078 8.12891L21.1641 3.875H14.8359ZM16.6641 6.125H19.3359L20.0391 9.71094L20.6719 9.92188C21.9609 10.3203 23.0977 10.9766 24.082 11.8906L24.5742 12.3477L28.0547 11.1523L29.3906 13.4375L27.1406 15.4414L26.6133 15.8633L26.7891 16.5312C26.9297 17.1641 27 17.8203 27 18.5C27 19.1797 26.9297 19.8359 26.7891 20.4688L26.6484 21.1367L29.3906 23.5625L28.0547 25.8477L24.5742 24.6523L24.082 25.1094C23.0977 26.0234 21.9609 26.6797 20.6719 27.0781L20.0391 27.2891L19.3359 30.875H16.6641L15.9609 27.2891L15.3281 27.0781C14.0391 26.6797 12.9023 26.0234 11.918 25.1094L11.4258 24.6523L7.94531 25.8477L6.60938 23.5625L8.85938 21.5586L9.38672 21.1367L9.21094 20.4688C9.07031 19.8359 9 19.1797 9 18.5C9 17.8203 9.07031 17.1641 9.21094 16.5312L9.38672 15.8633L8.85938 15.4414L6.60938 13.4375L7.94531 11.1523L11.4258 12.3477L11.918 11.8906C12.9023 10.9766 14.0391 10.3203 15.3281 9.92188L15.9609 9.71094L16.1016 9.04297L16.6641 6.125ZM18 12.875C16.9922 12.875 16.0547 13.1328 15.1875 13.6484C14.3203 14.1406 13.6289 14.8203 13.1133 15.6875C12.6211 16.5547 12.375 17.4922 12.375 18.5C12.375 19.5078 12.6211 20.4453 13.1133 21.3125C13.6289 22.1797 14.3203 22.8711 15.1875 23.3867C16.0547 23.8789 16.9922 24.125 18 24.125C19.0078 24.125 19.9453 23.8789 20.8125 23.3867C21.6797 22.8711 22.3594 22.1797 22.8516 21.3125C23.3672 20.4453 23.625 19.5078 23.625 18.5C23.625 17.4922 23.3672 16.5547 22.8516 15.6875C22.3594 14.8203 21.6797 14.1406 20.8125 13.6484C19.9453 13.1328 19.0078 12.875 18 12.875ZM18 15.125C18.9375 15.125 19.7344 15.4531 20.3906 16.1094C21.0469 16.7656 21.375 17.5625 21.375 18.5C21.375 19.4375 21.0469 20.2344 20.3906 20.8906C19.7344 21.5469 18.9375 21.875 18 21.875C17.0625 21.875 16.2656 21.5469 15.6094 20.8906C14.9531 20.2344 14.625 19.4375 14.625 18.5C14.625 17.5625 14.9531 16.7656 15.6094 16.1094C16.2656 15.4531 17.0625 15.125 18 15.125Z" fill="#8181A5"/>
</svg>
