<svg width="48" height="48" viewBox="0 0 48 48" fill="none" xmlns="http://www.w3.org/2000/svg">
<path d="M22.5 4.5C21.5938 4.5 20.7969 4.79688 20.1094 5.39062C19.4531 5.92188 18.9531 6.625 18.6094 7.5H7.5V42H19.5V45H40.5V21H37.5V7.5H26.3906C26.0469 6.625 25.5469 5.92188 24.8906 5.39062C24.2031 4.79688 23.4062 4.5 22.5 4.5ZM22.5 7.5C22.9062 7.5 23.25 7.65625 23.5312 7.96875C23.8438 8.25 24 8.59375 24 9V10.5H28.5V13.5H16.5V10.5H21V9C21 8.59375 21.1406 8.25 21.4219 7.96875C21.7344 7.65625 22.0938 7.5 22.5 7.5ZM10.5 10.5H13.5V16.5H31.5V10.5H34.5V21H19.5V39H10.5V10.5ZM22.5 24H37.5V42H22.5V24Z" fill="#8181A5"/>
<path d="M30.5 35L35 31V34.5L30.5 38.5L27 35.5L25 37V34L27 32.5L30.5 35Z" fill="#8181A5"/>
<rect x="25" y="27" width="4" height="2.7" fill="#8181A5"/>
<rect x="16" y="22" width="4" height="2.7" fill="#8181A5"/>
<rect x="16" y="28" width="4" height="2.7" fill="#8181A5"/>
<rect x="16" y="34" width="4" height="2.7" fill="#8181A5"/>
</svg>
