<svg width="20" height="20" viewBox="0 0 20 20" fill="none" xmlns="http://www.w3.org/2000/svg">
<path d="M13.1688 2.8489C13.0946 2.77942 13.0018 2.73312 12.9017 2.71571C12.8017 2.6983 12.6987 2.71055 12.6054 2.75093C12.5122 2.79132 12.4329 2.85809 12.3771 2.94301C12.3214 3.02794 12.2917 3.12731 12.2917 3.2289V5.5089C12.1425 5.51224 11.9688 5.5214 11.775 5.5389C11.1354 5.59807 10.2683 5.75807 9.36833 6.16599C7.53417 6.99724 5.64917 8.82182 5.21167 12.6493C5.19975 12.7541 5.21993 12.86 5.26952 12.9531C5.31911 13.0462 5.39578 13.122 5.4894 13.1705C5.58301 13.2191 5.68916 13.2381 5.7938 13.225C5.89844 13.2119 5.99664 13.1673 6.07542 13.0972C7.88167 11.4914 9.57417 10.8002 10.7987 10.506C11.288 10.3858 11.7882 10.316 12.2917 10.2977V12.6039C12.2917 12.7055 12.3214 12.8049 12.3771 12.8898C12.4329 12.9747 12.5122 13.0415 12.6054 13.0819C12.6987 13.1223 12.8017 13.1345 12.9017 13.1171C13.0018 13.0997 13.0946 13.0534 13.1688 12.9839L18.1688 8.2964C18.2207 8.24769 18.2621 8.18883 18.2905 8.12347C18.3188 8.05811 18.3334 7.98764 18.3334 7.9164C18.3334 7.84517 18.3188 7.7747 18.2905 7.70933C18.2621 7.64397 18.2207 7.58512 18.1688 7.5364L13.1688 2.8489ZM12.7525 6.5589L12.7608 6.55974H12.7617H12.7613C12.8336 6.56689 12.9067 6.55881 12.9757 6.53602C13.0448 6.51323 13.1083 6.47623 13.1622 6.4274C13.2161 6.37857 13.2592 6.319 13.2886 6.25252C13.3181 6.18604 13.3333 6.11412 13.3333 6.0414V4.43099L17.0508 7.9164L13.3333 11.4018V9.7914C13.3333 9.5289 13.1442 9.30807 12.8771 9.27474H12.8758L12.8742 9.27432L12.87 9.2739L12.8583 9.27265C12.8015 9.26706 12.7445 9.26289 12.6875 9.26015C12.5754 9.25432 12.4158 9.25099 12.215 9.25765C11.6553 9.28087 11.0994 9.35987 10.5554 9.49349C9.43875 9.7614 8.01417 10.3147 6.48125 11.4322C7.10042 8.8989 8.5075 7.69974 9.79792 7.11474C10.565 6.76724 11.3125 6.62807 11.8708 6.5764C12.1492 6.55057 12.3775 6.54724 12.5338 6.54974C12.6067 6.55078 12.6797 6.55383 12.7525 6.5589ZM5.10417 3.33307C4.4135 3.33307 3.75112 3.60744 3.26274 4.09581C2.77437 4.58419 2.5 5.24657 2.5 5.93724V14.8956C2.5 15.5862 2.77437 16.2486 3.26274 16.737C3.75112 17.2254 4.4135 17.4997 5.10417 17.4997H14.0625C14.7532 17.4997 15.4155 17.2254 15.9039 16.737C16.3923 16.2486 16.6667 15.5862 16.6667 14.8956V13.9581C16.6667 13.8199 16.6118 13.6875 16.5141 13.5898C16.4164 13.4921 16.284 13.4372 16.1458 13.4372C16.0077 13.4372 15.8752 13.4921 15.7775 13.5898C15.6799 13.6875 15.625 13.8199 15.625 13.9581V14.8956C15.625 15.31 15.4604 15.7074 15.1674 16.0004C14.8743 16.2934 14.4769 16.4581 14.0625 16.4581H5.10417C4.68977 16.4581 4.29234 16.2934 3.99931 16.0004C3.70629 15.7074 3.54167 15.31 3.54167 14.8956V5.93724C3.54167 5.52284 3.70629 5.12541 3.99931 4.83238C4.29234 4.53936 4.68977 4.37474 5.10417 4.37474H8.54167C8.6798 4.37474 8.81228 4.31986 8.90995 4.22219C9.00763 4.12451 9.0625 3.99204 9.0625 3.8539C9.0625 3.71577 9.00763 3.58329 8.90995 3.48562C8.81228 3.38794 8.6798 3.33307 8.54167 3.33307H5.10417Z" fill="white"/>
</svg>
