<svg width="280" height="60" viewBox="0 0 280 60" fill="none" xmlns="http://www.w3.org/2000/svg">
<g filter="url(#filter0_d_931_38519)">
<mask id="path-1-inside-1_931_38519" fill="white">
<path fill-rule="evenodd" clip-rule="evenodd" d="M263.152 3.01544C262.439 1.76914 261.114 1 259.679 1H6.89263C3.82134 1 1.89587 4.31793 3.41966 6.98456L14.8659 27.0154C15.5686 28.2452 15.5686 29.7548 14.8659 30.9846L3.41966 51.0154C1.89587 53.6821 3.82133 57 6.89262 57H259.679C261.114 57 262.439 56.2309 263.152 54.9846L276.866 30.9846C277.569 29.7548 277.569 28.2452 276.866 27.0154L263.152 3.01544Z"/>
</mask>
<path fill-rule="evenodd" clip-rule="evenodd" d="M263.152 3.01544C262.439 1.76914 261.114 1 259.679 1H6.89263C3.82134 1 1.89587 4.31793 3.41966 6.98456L14.8659 27.0154C15.5686 28.2452 15.5686 29.7548 14.8659 30.9846L3.41966 51.0154C1.89587 53.6821 3.82133 57 6.89262 57H259.679C261.114 57 262.439 56.2309 263.152 54.9846L276.866 30.9846C277.569 29.7548 277.569 28.2452 276.866 27.0154L263.152 3.01544Z" fill="#E9EAFF"/>
<path d="M14.8659 27.0154L13.9976 27.5116L14.8659 27.0154ZM14.8659 30.9846L13.9976 30.4884L14.8659 30.9846ZM276.866 30.9846L277.734 31.4807V31.4807L276.866 30.9846ZM276.866 27.0154L277.734 26.5193V26.5193L276.866 27.0154ZM263.152 3.01544L264.02 2.51931L263.152 3.01544ZM263.152 54.9846L264.02 55.4807L263.152 54.9846ZM6.89263 2H259.679V0H6.89263V2ZM15.7341 26.5193L4.2879 6.48842L2.55141 7.4807L13.9976 27.5116L15.7341 26.5193ZM15.7341 31.4807C16.6125 29.9435 16.6125 28.0565 15.7341 26.5193L13.9976 27.5116C14.5247 28.4339 14.5247 29.5661 13.9976 30.4884L15.7341 31.4807ZM4.2879 51.5116L15.7341 31.4807L13.9976 30.4884L2.55141 50.5193L4.2879 51.5116ZM259.679 56H6.89262V58H259.679V56ZM275.998 30.4884L262.283 54.4884L264.02 55.4807L277.734 31.4807L275.998 30.4884ZM275.998 27.5116C276.525 28.4339 276.525 29.5661 275.998 30.4884L277.734 31.4807C278.612 29.9435 278.612 28.0565 277.734 26.5193L275.998 27.5116ZM262.283 3.51158L275.998 27.5116L277.734 26.5193L264.02 2.51931L262.283 3.51158ZM2.55141 50.5193C0.646683 53.8526 3.05351 58 6.89262 58V56C4.58916 56 3.14506 53.5116 4.2879 51.5116L2.55141 50.5193ZM259.679 2C260.755 2 261.749 2.57686 262.283 3.51158L264.02 2.51931C263.13 0.961431 261.473 0 259.679 0V2ZM259.679 58C261.473 58 263.13 57.0386 264.02 55.4807L262.283 54.4884C261.749 55.4231 260.755 56 259.679 56V58ZM6.89263 0C3.05352 0 0.646682 4.14741 2.55141 7.4807L4.2879 6.48842C3.14506 4.48845 4.58916 2 6.89263 2V0Z" fill="#7F85F3" mask="url(#path-1-inside-1_931_38519)"/>
</g>
<defs>
<filter id="filter0_d_931_38519" x="0.886719" y="0" width="278.506" height="60" filterUnits="userSpaceOnUse" color-interpolation-filters="sRGB">
<feFlood flood-opacity="0" result="BackgroundImageFix"/>
<feColorMatrix in="SourceAlpha" type="matrix" values="0 0 0 0 0 0 0 0 0 0 0 0 0 0 0 0 0 0 127 0" result="hardAlpha"/>
<feOffset dy="1"/>
<feGaussianBlur stdDeviation="1"/>
<feColorMatrix type="matrix" values="0 0 0 0 0.215686 0 0 0 0 0.254902 0 0 0 0 0.317647 0 0 0 0.08 0"/>
<feBlend mode="normal" in2="BackgroundImageFix" result="effect1_dropShadow_931_38519"/>
<feBlend mode="normal" in="SourceGraphic" in2="effect1_dropShadow_931_38519" result="shape"/>
</filter>
</defs>
</svg>
