<svg width="40" height="40" viewBox="0 0 40 40" fill="none" xmlns="http://www.w3.org/2000/svg">
<rect opacity="0.01" width="40" height="40" fill="white"/>
<g clip-path="url(#clip0_4161_105683)">
<path fill-rule="evenodd" clip-rule="evenodd" d="M12.1928 4H22.9023L31.9651 13.4599V31.8307C31.9651 34.1314 30.1082 36 27.8074 36H12.1928C9.90376 36 8.03516 34.1314 8.03516 31.8307V8.15765C8.03512 5.8686 9.90376 4 12.1928 4V4Z" fill="#06A561"/>
<path opacity="0.302" fill-rule="evenodd" clip-rule="evenodd" d="M22.8906 4V13.3781H31.9651L22.8906 4Z" fill="white"/>
<path d="M17.9855 25.8744H16.4322L15.3694 24.0876L14.3067 25.8744H12.7417L14.587 22.7678L12.9636 20.07H14.5285L15.3694 21.4715L16.1986 20.07H17.7635L16.1518 22.7795L17.9855 25.8744ZM18.5344 25.8744V20.07H20.0176V24.6131H22.5402V25.8744H18.5344V25.8744ZM24.9928 25.9445C24.4088 25.9445 23.895 25.7576 23.4512 25.3956C23.019 25.0452 22.7738 24.6014 22.7388 24.0759L24.0118 23.7022C24.0468 23.9825 24.1636 24.2277 24.3621 24.4146C24.5723 24.6015 24.8059 24.6949 25.0629 24.6949C25.2731 24.6949 25.4483 24.6482 25.5884 24.5547C25.7169 24.4613 25.7869 24.3328 25.7869 24.181C25.7869 24.0526 25.7285 23.9474 25.6234 23.854C25.5183 23.7723 25.3782 23.7022 25.2146 23.6438C25.0511 23.5854 24.8526 23.527 24.6541 23.4803C24.4439 23.4219 24.2336 23.3518 24.0351 23.2584C23.8249 23.1767 23.638 23.0715 23.4745 22.9431C23.2993 22.8263 23.1709 22.6511 23.0657 22.4292C22.9606 22.219 22.9022 21.962 22.9022 21.6701C22.9022 21.1912 23.1007 20.7942 23.5095 20.4788C23.9183 20.1518 24.4088 20 24.981 20C25.5533 20 26.0555 20.1401 26.4759 20.4088C26.8964 20.689 27.165 21.0511 27.2701 21.4949L25.9387 22.0555C25.8803 21.8102 25.7635 21.6117 25.6 21.4599C25.4365 21.3197 25.2263 21.238 24.981 21.238C24.7942 21.238 24.654 21.2847 24.5373 21.3548C24.4321 21.4249 24.3854 21.53 24.3854 21.6584C24.3854 21.7752 24.4555 21.8803 24.5956 21.9621C24.7358 22.0321 24.9226 22.0905 25.1329 22.1256C25.3431 22.1606 25.5766 22.219 25.8219 22.3008C26.0788 22.3942 26.3007 22.4877 26.5226 22.6161C26.7328 22.7329 26.908 22.9314 27.0482 23.1884C27.2 23.457 27.27 23.7723 27.27 24.1344C27.27 24.6716 27.0598 25.1154 26.6394 25.4424C26.2189 25.7694 25.6702 25.9445 24.9928 25.9445V25.9445Z" fill="white"/>
</g>
<defs>
<clipPath id="clip0_4161_105683">
<rect width="32" height="32" fill="white" transform="translate(4 4)"/>
</clipPath>
</defs>
</svg>
