<svg width="16" height="16" viewBox="0 0 16 16" fill="none" xmlns="http://www.w3.org/2000/svg">
<path d="M9.40816 0.00662262L0.265306 1.70698C0.110969 1.73574 0 1.87327 0 2.02705V13.9696C0 14.1234 0.110969 14.2609 0.265306 14.2896L9.40816 15.99C9.42857 15.9937 9.44898 16 9.46939 16C9.54464 16 9.6148 15.9775 9.67347 15.93C9.74872 15.8687 9.79592 15.775 9.79592 15.6799V0.316688C9.79592 0.221668 9.74872 0.127898 9.67347 0.0666353C9.59821 0.00537237 9.50383 -0.0108811 9.40816 0.00662262ZM10.449 1.91703V4.1575H11.102V4.79763H10.449V6.39797H11.102V7.03811H10.449V8.63844H11.102V9.27858H10.449V11.199H11.102V11.8391H10.449V14.0796H15.3469C15.7066 14.0796 16 13.792 16 13.4395V2.55716C16 2.20459 15.7066 1.91703 15.3469 1.91703H10.449ZM11.7551 4.1575H14.3673V4.79763H11.7551V4.1575ZM2.18367 5.01768H3.85714L4.73469 6.80806C4.80357 6.94934 4.8648 7.12313 4.91837 7.31817H4.92857C4.96301 7.20189 5.02934 7.01935 5.12245 6.78805L6.09184 5.01768H7.62245L5.79592 7.97831L7.67347 10.9989H6.05102L4.9898 9.04853C4.95025 8.97602 4.90944 8.84224 4.86735 8.64845H4.85714C4.83673 8.73972 4.78827 8.88225 4.71429 9.06854L3.65306 10.9989H2.02041L3.96939 8.00831L2.18367 5.01768ZM11.7551 6.39797H14.3673V7.03811H11.7551V6.39797ZM11.7551 8.63844H14.3673V9.27858H11.7551V8.63844ZM11.7551 11.199H14.3673V11.8391H11.7551V11.199Z" fill="#258450"/>
</svg>
