<svg width="16" height="20" viewBox="0 0 16 20" fill="none" xmlns="http://www.w3.org/2000/svg">
<path d="M8.00178 0.5C7.54178 0.5 7.07178 0.54 6.60178 0.64C3.84178 1.17 1.64178 3.4 1.12178 6.16C0.64178 8.77 1.60178 11.17 3.34178 12.72C3.77178 13.1 4.00178 13.63 4.00178 14.19V16.5C4.00178 17.6 4.90178 18.5 6.00178 18.5H6.28178C6.63178 19.1 7.26178 19.5 8.00178 19.5C8.74178 19.5 9.38178 19.1 9.72178 18.5H10.0018C11.1018 18.5 12.0018 17.6 12.0018 16.5V14.19C12.0018 13.64 12.2218 13.1 12.6418 12.73C14.0918 11.45 15.0018 9.58 15.0018 7.5C15.0018 3.63 11.8718 0.5 8.00178 0.5ZM10.0018 14.5H6.00178V13.5H10.0018V14.5ZM6.00178 16.5V15.5H10.0018V16.5H6.00178ZM11.3118 11.24C11.2218 11.32 11.1518 11.42 11.0718 11.5H4.92178C4.84178 11.41 4.77178 11.31 4.68178 11.23C3.36178 10.05 2.77178 8.29 3.09178 6.53C3.45178 4.59 5.05178 2.98 6.98178 2.6C7.32178 2.53 7.66178 2.5 8.00178 2.5C10.7618 2.5 13.0018 4.74 13.0018 7.5C13.0018 8.93 12.3918 10.29 11.3118 11.24Z" fill="#4E4B66"/>
<path d="M8.50178 8.5H7.50178V11.5H8.50178V8.5Z" fill="#4E4B66"/>
<path d="M6.38128 6.37372L5.67418 7.08082L7.79548 9.20212L8.50258 8.49502L6.38128 6.37372Z" fill="#4E4B66"/>
<path d="M7.50278 8.50518L8.20988 9.21228L10.3312 7.09098L9.62408 6.38388L7.50278 8.50518Z" fill="#4E4B66"/>
</svg>
