<svg width="72" height="61" viewBox="0 0 72 61" fill="none" xmlns="http://www.w3.org/2000/svg">
<path fill-rule="evenodd" clip-rule="evenodd" d="M71.5854 18.7715C71.5854 16.5623 69.7946 14.7715 67.5854 14.7715H19.1854C16.9763 14.7715 15.1855 16.5623 15.1855 18.7715V48.3715C15.1855 50.5806 16.9763 52.3715 19.1855 52.3715H60.8426L71.5854 60.4286V18.7715Z" fill="#E9EAFF"/>
<path fill-rule="evenodd" clip-rule="evenodd" d="M0.414062 4C0.414062 1.79086 2.20492 0 4.41406 0H52.8141C55.0232 0 56.8141 1.79086 56.8141 4V33.6C56.8141 35.8091 55.0232 37.6 52.8141 37.6H11.1569L0.414062 45.6571V4Z" fill="#141ED2"/>
<rect x="12.5" y="9.3999" width="32.2286" height="2.68571" fill="white"/>
<rect x="12.5" y="17.457" width="32.2286" height="2.68571" fill="white"/>
<rect x="12.5" y="25.5142" width="17.4571" height="2.68571" fill="white"/>
</svg>
