<svg width="311" height="98" viewBox="0 0 311 98" fill="none" xmlns="http://www.w3.org/2000/svg">
<mask id="mask0_2778_22335" style="mask-type:alpha" maskUnits="userSpaceOnUse" x="0" y="0" width="311" height="98">
<path d="M0 16C0 7.16344 7.16344 0 16 0H295C303.837 0 311 7.16344 311 16V98H0V16Z" fill="#E8EAF6"/>
</mask>
<g mask="url(#mask0_2778_22335)">
<path d="M0 16C0 7.16344 7.16344 0 16 0H295C303.837 0 311 7.16344 311 16V98H0V16Z" fill="#141ED2"/>
<path d="M297.69 80.7705C296.409 80.7705 295.213 80.8559 293.932 81.1122C293.676 81.1976 208.344 100.16 207.746 100.331C202.28 101.527 197.753 103.918 194.165 107.506C184.001 117.67 184.001 134.156 194.165 144.321C199.119 149.275 205.611 151.923 212.53 151.923C216.032 151.923 219.534 151.239 222.694 149.787C222.78 149.787 237.557 143.295 261.986 132.704C282.571 123.735 303.84 114.51 304.011 114.425C306.232 113.571 308.282 112.204 309.99 110.495C316.824 103.662 316.824 92.558 309.99 85.7247C306.83 82.5642 302.388 80.7705 297.69 80.7705Z" fill="#B4A0FA"/>
<path d="M249.088 82.2231C250.113 82.0523 251.138 81.796 252.077 81.4544C252.248 81.3689 319.3 55.5731 319.727 55.4023C323.998 53.7794 327.415 51.2169 329.892 47.8856C336.896 38.4044 334.846 24.9939 325.365 17.9898C320.753 14.5731 315.115 13.2064 309.477 14.0606C306.573 14.4877 303.925 15.5127 301.448 16.9648C301.363 16.9648 290.173 24.0544 271.638 35.671C256.007 45.4085 239.863 55.5731 239.692 55.6585C237.984 56.6835 236.532 57.9648 235.336 59.5877C230.638 65.9939 232.005 74.9627 238.325 79.6606C241.4 81.8814 245.159 82.7356 249.088 82.2231Z" fill="#A0D2FF"/>
</g>
</svg>
