<svg width="30" height="16" viewBox="0 0 30 16" fill="none" xmlns="http://www.w3.org/2000/svg">
<path d="M9.33325 4.33366V3.00033H6.66659V4.33366H9.33325ZM2.66659 6.33366V12.3337C2.66659 12.7003 2.96659 13.0003 3.33325 13.0003H12.6666C13.0333 13.0003 13.3333 12.7003 13.3333 12.3337V6.33366C13.3333 5.96699 13.0333 5.66699 12.6666 5.66699H3.33325C2.96659 5.66699 2.66659 5.96699 2.66659 6.33366ZM13.3333 4.33366C14.0733 4.33366 14.6666 4.92699 14.6666 5.66699V13.0003C14.6666 13.7403 14.0733 14.3337 13.3333 14.3337H2.66659C1.92659 14.3337 1.33325 13.7403 1.33325 13.0003L1.33992 5.66699C1.33992 4.92699 1.92659 4.33366 2.66659 4.33366H5.33325V3.00033C5.33325 2.26033 5.92659 1.66699 6.66659 1.66699H9.33325C10.0733 1.66699 10.6666 2.26033 10.6666 3.00033V4.33366H13.3333Z" fill="#4E4B66"/>
<path d="M21.0787 7.65766L22.5895 9.16849C22.817 9.39599 23.1845 9.39599 23.412 9.16849L24.9229 7.65766C25.2904 7.29016 25.0279 6.66016 24.5087 6.66016H21.487C20.9679 6.66016 20.7112 7.29016 21.0787 7.65766Z" fill="#4E4B66"/>
</svg>
