<svg width="20" height="18" viewBox="0 0 20 18" fill="none" xmlns="http://www.w3.org/2000/svg">
<path d="M9.69751 16.9639L8.83751 16.1039C7.65751 14.9239 7.66751 13.0039 8.85751 11.8439L9.69751 11.0239C9.30751 10.9839 9.01751 10.9639 8.69751 10.9639C6.02751 10.9639 0.69751 12.3039 0.69751 14.9639V16.9639H9.69751ZM8.69751 8.96387C10.9075 8.96387 12.6975 7.17387 12.6975 4.96387C12.6975 2.75387 10.9075 0.963867 8.69751 0.963867C6.48751 0.963867 4.69751 2.75387 4.69751 4.96387C4.69751 7.17387 6.48751 8.96387 8.69751 8.96387Z" fill="white"/>
<path d="M13.8775 16.7439C13.4875 17.1339 12.8475 17.1339 12.4575 16.7439L10.3875 14.6539C10.0075 14.2639 10.0075 13.6439 10.3875 13.2639L10.3975 13.2539C10.7875 12.8639 11.4175 12.8639 11.7975 13.2539L13.1675 14.6239L17.5975 10.1639C17.9875 9.77387 18.6175 9.77387 19.0075 10.1639L19.0175 10.1739C19.3975 10.5639 19.3975 11.1839 19.0175 11.5639L13.8775 16.7439Z" fill="white"/>
</svg>
