<svg width="90" height="90" viewBox="0 0 90 90" fill="none" xmlns="http://www.w3.org/2000/svg">
<path d="M38.2101 5.43274H53.2517V7.96371H58.6838V5.07843C58.6845 2.27829 56.4076 0 53.6088 0H37.853C35.0543 0 32.7773 2.27829 32.7773 5.07843V7.96371H38.2101V5.43274Z" fill="#FA4949"/>
<path d="M71.2283 29.4873H20.2325C18.8352 29.4873 17.7352 30.6793 17.8478 32.0725L22.1112 84.7904C22.3487 87.7334 24.8035 90 27.7526 90H63.7075C66.6566 90 69.1114 87.7334 69.3489 84.7897L73.6123 32.0725C73.7256 30.6793 72.6256 29.4873 71.2283 29.4873ZM32.5804 84.3771C32.5235 84.3805 32.4665 84.3826 32.4102 84.3826C30.9861 84.3826 29.7906 83.2736 29.702 81.833L27.0303 38.5545C26.9383 37.0569 28.0774 35.7681 29.5743 35.676C31.0664 35.5854 32.3607 36.7218 32.4527 38.2201L35.1238 81.4986C35.2165 82.9962 34.0773 84.2844 32.5804 84.3771ZM48.477 81.6662C48.477 83.1658 47.2609 84.3819 45.7606 84.3819C44.2603 84.3819 43.0442 83.1658 43.0442 81.6662V38.3869C43.0442 36.8866 44.2603 35.6705 45.7606 35.6705C47.2602 35.6705 48.477 36.8866 48.477 38.3869V81.6662ZM64.4305 38.5469L61.8796 81.8255C61.7952 83.2688 60.5976 84.3819 59.1708 84.3819C59.1172 84.3819 59.063 84.3805 59.0087 84.3777C57.5112 84.2892 56.3686 83.0038 56.4572 81.5062L59.0074 38.2269C59.0953 36.7294 60.3765 35.5868 61.8782 35.6754C63.3758 35.7632 64.5184 37.0493 64.4305 38.5469Z" fill="#FA4949"/>
<path d="M80.6217 21.1048L78.8378 15.7572C78.3674 14.3475 77.0477 13.3965 75.5611 13.3965H15.8992C14.4133 13.3965 13.0929 14.3475 12.6232 15.7572L10.8393 21.1048C10.4953 22.1361 10.943 23.188 11.7786 23.7126C12.1192 23.9262 12.5223 24.0546 12.9651 24.0546H78.4958C78.9387 24.0546 79.3425 23.9262 79.6824 23.712C80.518 23.1874 80.9657 22.1354 80.6217 21.1048Z" fill="#FA4949"/>
</svg>
