<svg width="10" height="13" viewBox="0 0 10 13" fill="none" xmlns="http://www.w3.org/2000/svg">
<path d="M0.833361 11.3611C0.833361 12.125 1.45836 12.75 2.22225 12.75H7.77781C8.54169 12.75 9.16669 12.125 9.16669 11.3611V4.41667C9.16669 3.65278 8.54169 3.02778 7.77781 3.02778H2.22225C1.45836 3.02778 0.833361 3.65278 0.833361 4.41667V11.3611ZM2.91669 4.41667H7.08336C7.46531 4.41667 7.77781 4.72917 7.77781 5.11111V10.6667C7.77781 11.0486 7.46531 11.3611 7.08336 11.3611H2.91669C2.53475 11.3611 2.22225 11.0486 2.22225 10.6667V5.11111C2.22225 4.72917 2.53475 4.41667 2.91669 4.41667ZM7.43058 0.944444L6.93753 0.451389C6.81253 0.326389 6.63197 0.25 6.45142 0.25H3.54864C3.36808 0.25 3.18753 0.326389 3.06253 0.451389L2.56947 0.944444H0.833361C0.451416 0.944444 0.138916 1.25694 0.138916 1.63889C0.138916 2.02083 0.451416 2.33333 0.833361 2.33333H9.16669C9.54864 2.33333 9.86114 2.02083 9.86114 1.63889C9.86114 1.25694 9.54864 0.944444 9.16669 0.944444H7.43058Z" fill="#4E4B66"/>
</svg>
