<svg width="22" height="22" viewBox="0 0 22 22" fill="none" xmlns="http://www.w3.org/2000/svg">
<path d="M9.93372 20.5H2.93372C1.82372 20.5 0.933716 19.6 0.933716 18.5L0.943716 4.5C0.943716 3.4 1.82372 2.5 2.93372 2.5H3.93372V1.5C3.93372 0.95 4.38372 0.5 4.93372 0.5C5.48372 0.5 5.93372 0.95 5.93372 1.5V2.5H13.9337V1.5C13.9337 0.95 14.3837 0.5 14.9337 0.5C15.4837 0.5 15.9337 0.95 15.9337 1.5V2.5H16.9337C18.0337 2.5 18.9337 3.4 18.9337 4.5V10.5H16.9337V8.5H2.93372V18.5H9.93372V20.5ZM20.0637 15.49L20.7737 14.78C21.1637 14.39 21.1637 13.76 20.7737 13.37L20.0637 12.66C19.6737 12.27 19.0437 12.27 18.6537 12.66L17.9437 13.37L20.0637 15.49ZM19.3537 16.2L14.3437 21.21C14.1637 21.39 13.9037 21.5 13.6437 21.5H12.4337C12.1537 21.5 11.9337 21.28 11.9337 21V19.79C11.9337 19.52 12.0437 19.27 12.2237 19.08L17.2337 14.07L19.3537 16.2Z" fill="white"/>
</svg>
