<svg width="22" height="18" viewBox="0 0 22 18" fill="none" xmlns="http://www.w3.org/2000/svg">
<path d="M16.505 0.677734C14.555 0.677734 12.455 1.07773 11.005 2.17773C9.55501 1.07773 7.455 0.677734 5.505 0.677734C4.05501 0.677734 2.515 0.897734 1.225 1.46773C0.495005 1.79773 0.00500488 2.50773 0.00500488 3.31773V14.5977C0.00500488 15.8977 1.225 16.8577 2.485 16.5377C3.465 16.2877 4.505 16.1777 5.505 16.1777C7.065 16.1777 8.72501 16.4377 10.065 17.0977C10.665 17.3977 11.345 17.3977 11.935 17.0977C13.275 16.4277 14.935 16.1777 16.495 16.1777C17.495 16.1777 18.535 16.2877 19.515 16.5377C20.775 16.8677 21.995 15.9077 21.995 14.5977V3.31773C21.995 2.50773 21.505 1.79773 20.775 1.46773C19.495 0.897734 17.955 0.677734 16.505 0.677734ZM20.005 13.4077C20.005 14.0377 19.425 14.4977 18.805 14.3877C18.055 14.2477 17.275 14.1877 16.505 14.1877C14.805 14.1877 12.355 14.8377 11.005 15.6877V4.17773C12.355 3.32773 14.805 2.67773 16.505 2.67773C17.425 2.67773 18.335 2.76773 19.205 2.95773C19.665 3.05773 20.005 3.46773 20.005 3.93773V13.4077Z" fill="white"/>
<path d="M12.985 7.18773C12.665 7.18773 12.375 6.98773 12.275 6.66773C12.145 6.27773 12.365 5.84773 12.755 5.72773C14.295 5.22773 16.285 5.06773 18.115 5.27773C18.525 5.32773 18.825 5.69773 18.775 6.10773C18.725 6.51773 18.355 6.81773 17.945 6.76773C16.325 6.57773 14.555 6.72773 13.215 7.15773C13.135 7.16773 13.055 7.18773 12.985 7.18773Z" fill="white"/>
<path d="M12.985 9.84773C12.665 9.84773 12.375 9.64773 12.275 9.32773C12.145 8.93773 12.365 8.50773 12.755 8.38773C14.285 7.88773 16.285 7.72773 18.115 7.93773C18.525 7.98773 18.825 8.35773 18.775 8.76773C18.725 9.17773 18.355 9.47773 17.945 9.42773C16.325 9.23773 14.555 9.38773 13.215 9.81773C13.135 9.83774 13.055 9.84773 12.985 9.84773Z" fill="white"/>
<path d="M12.985 12.5077C12.665 12.5077 12.375 12.3077 12.275 11.9877C12.145 11.5977 12.365 11.1677 12.755 11.0477C14.285 10.5477 16.285 10.3877 18.115 10.5977C18.525 10.6477 18.825 11.0177 18.775 11.4277C18.725 11.8377 18.355 12.1277 17.945 12.0877C16.325 11.8977 14.555 12.0477 13.215 12.4777C13.135 12.4977 13.055 12.5077 12.985 12.5077Z" fill="white"/>
</svg>
