<svg width="20" height="12" viewBox="0 0 20 12" fill="none" xmlns="http://www.w3.org/2000/svg">
<path d="M14.6461 1.05361L16.0861 2.49361L11.2061 7.37361L7.91612 4.08361C7.52612 3.69361 6.89612 3.69361 6.50612 4.08361L0.506123 10.0936C0.116123 10.4836 0.116123 11.1136 0.506123 11.5036C0.896123 11.8936 1.52612 11.8936 1.91612 11.5036L7.20612 6.20361L10.4961 9.49361C10.8861 9.88361 11.5161 9.88361 11.9061 9.49361L17.4961 3.91361L18.9361 5.35361C19.2461 5.66361 19.7861 5.44361 19.7861 5.00361V0.703613C19.7961 0.423613 19.5761 0.203613 19.2961 0.203613H15.0061C14.5561 0.203613 14.3361 0.743613 14.6461 1.05361Z" fill="white"/>
</svg>
