<svg width="132" height="26" viewBox="0 0 132 26" fill="none" xmlns="http://www.w3.org/2000/svg">
<path d="M113.82 0.958008C112.511 0.958008 111.29 1.04342 109.981 1.29967C109.72 1.38509 22.5762 20.3476 21.9656 20.5184C16.3828 21.7143 11.7596 24.1059 8.0959 27.6934C-2.28457 37.858 -2.28457 54.3434 8.0959 64.508C13.1553 69.4622 19.7848 72.1101 26.8505 72.1101C30.427 72.1101 34.0035 71.4268 37.231 69.9747C37.3182 69.9747 52.4092 63.483 77.3572 52.8913C98.3798 43.9226 120.1 34.6976 120.275 34.6122C122.543 33.758 124.636 32.3913 126.381 30.683C133.359 23.8497 133.359 12.7455 126.381 5.91216C123.153 2.75175 118.617 0.958008 113.82 0.958008Z" fill="#B4A0FA"/>
</svg>
