<svg width="104" height="39" viewBox="0 0 104 39" fill="none" xmlns="http://www.w3.org/2000/svg">
<path d="M17.1844 38.4101C18.2312 38.2393 19.278 37.983 20.2375 37.6414C20.412 37.5559 88.8882 11.7601 89.3243 11.5893C93.6859 9.96637 97.1751 7.40388 99.7048 4.07263C106.858 -5.40862 104.764 -18.819 95.0816 -25.8232C90.3711 -29.2399 84.6139 -30.6065 78.8566 -29.7524C75.8908 -29.3253 73.1867 -28.3003 70.657 -26.8482C70.5697 -26.8482 59.1425 -19.7586 40.2134 -8.14196C24.2501 1.59554 7.76348 11.7601 7.58902 11.8455C5.8444 12.8705 4.3615 14.1518 3.14027 15.7747C-1.65743 22.181 -0.261737 31.1497 6.19335 35.8476C9.33366 38.0685 13.1718 38.9226 17.1844 38.4101Z" fill="#A0D2FF"/>
</svg>
