<svg width="20" height="20" viewBox="0 0 20 20" fill="#75C044" xmlns="http://www.w3.org/2000/svg">
<path fill="#75C044" d="M10 1.04297C14.9476 1.04297 18.958 5.05343 18.958 10.001C18.958 14.9485 14.9476 18.959 10 18.959C5.05245 18.959 1.04199 14.9485 1.04199 10.001C1.04199 5.05343 5.05245 1.04297 10 1.04297ZM14.2803 7.3877C13.9874 7.09486 13.5126 7.09496 13.2197 7.3877L9.16602 11.4404L7.61328 9.8877L7.55664 9.83594C7.26206 9.59566 6.82733 9.6131 6.55273 9.8877C6.26017 10.1806 6.25995 10.6555 6.55273 10.9482L8.63574 13.0312C8.77624 13.1717 8.96734 13.2508 9.16602 13.251C9.36477 13.251 9.55567 13.1717 9.69629 13.0312L14.2803 8.44824C14.5729 8.15539 14.5729 7.68055 14.2803 7.3877Z"/>
</svg>
