<svg width="1366px" height="768px" viewBox="0 0 1366 768" fill="none" xmlns="http://www.w3.org/2000/svg">
  <g opacity="0.12">
    <path d="M990.509 357.672C974.157 357.672 958.895 358.757 942.544 362.014C939.273 363.099 -149.74 604.062 -157.371 606.232C-227.138 621.428 -284.913 651.82 -330.698 697.407C-460.42 826.572 -460.42 1036.06 -330.698 1165.22C-267.472 1228.18 -184.624 1261.82 -96.3254 1261.82C-51.6312 1261.82 -6.93661 1253.14 33.3972 1234.69C34.4873 1234.69 223.075 1152.2 534.845 1017.61C797.56 903.637 1069 786.412 1071.18 785.326C1099.52 774.472 1125.68 757.105 1147.48 735.397C1234.69 648.564 1234.69 507.459 1147.48 420.626C1107.15 380.466 1050.46 357.672 990.509 357.672Z" fill="#B4A0FA"/>
    <path d="M370.238 376.122C383.319 373.951 396.4 370.695 408.391 366.353C410.572 365.268 1266.3 37.4717 1271.75 35.3008C1326.26 14.6779 1369.86 -17.8844 1401.48 -60.2157C1490.87 -180.697 1464.7 -351.107 1343.7 -440.112C1284.84 -483.528 1212.89 -500.895 1140.94 -490.041C1103.88 -484.614 1070.09 -471.589 1038.47 -453.137C1037.38 -453.137 894.578 -363.047 658.026 -215.43C458.537 -91.6928 252.507 37.4717 250.326 38.5571C228.524 51.5822 209.993 67.8635 194.731 88.4864C134.776 169.893 152.217 283.861 232.885 343.559C272.129 371.78 320.093 382.634 370.238 376.122Z" fill="#A0D2FF"/>
  </g>
  <path opacity="0.21" fill-rule="evenodd" clip-rule="evenodd" d="M1290.81 526.43C1290.72 526.154 1290.77 525.872 1290.91 525.641L1292.77 522.583C1292.91 522.342 1293.14 522.154 1293.43 522.06C1294.08 521.851 1294.77 522.203 1294.98 522.846C1295.12 523.289 1294.98 523.738 1294.7 524.068C1294.69 524.075 1292.38 526.756 1292.38 526.762C1292.27 526.879 1292.14 526.972 1291.98 527.024C1291.49 527.182 1290.97 526.916 1290.81 526.43ZM1289 529.425C1287.91 528.95 1286.38 528.286 1286.37 528.283C1286.12 528.168 1285.93 527.942 1285.88 527.651C1285.81 527.196 1286.12 526.77 1286.58 526.698C1286.69 526.679 1286.81 526.686 1286.91 526.714L1290.89 527.595C1291.36 527.702 1291.74 528.089 1291.82 528.597C1291.93 529.264 1291.47 529.892 1290.8 529.997C1290.55 530.037 1290.31 529.991 1290.09 529.895L1289 529.425ZM1297.58 530.087C1297.32 530.026 1297.03 530.062 1296.8 530.233C1296.38 530.534 1296.29 531.113 1296.59 531.526C1296.69 531.663 1296.82 531.763 1296.97 531.827C1296.98 531.831 1300.24 533.193 1300.25 533.196C1300.65 533.364 1301.12 533.354 1301.5 533.08C1302.04 532.681 1302.16 531.915 1301.76 531.369C1301.59 531.124 1301.34 530.962 1301.06 530.901L1297.58 530.087ZM1295.04 537.087C1295.27 537.258 1295.39 537.518 1295.42 537.787L1295.71 541.351C1295.74 541.63 1295.66 541.919 1295.48 542.164C1295.09 542.711 1294.32 542.832 1293.77 542.435C1293.4 542.162 1293.24 541.719 1293.28 541.284L1293.32 540.837L1293.32 540.825C1293.4 539.868 1293.57 537.747 1293.57 537.741C1293.59 537.584 1293.64 537.429 1293.74 537.292C1294.04 536.879 1294.62 536.787 1295.04 537.087ZM1287.41 538.123C1287.66 538.019 1287.87 537.822 1287.96 537.547C1288.12 537.061 1287.85 536.538 1287.37 536.38C1287.21 536.327 1287.04 536.322 1286.89 536.355C1286.88 536.357 1283.43 537.165 1283.43 537.167C1283 537.266 1282.63 537.55 1282.48 537.992C1282.27 538.635 1282.62 539.326 1283.27 539.535C1283.55 539.629 1283.85 539.613 1284.11 539.503L1287.41 538.123ZM1285.35 530.951C1285.06 530.951 1284.81 530.813 1284.63 530.609L1282.29 527.901C1282.11 527.689 1282 527.41 1282 527.108C1282 526.432 1282.55 525.883 1283.22 525.883C1283.69 525.883 1284.07 526.15 1284.3 526.523L1284.59 527C1285.11 527.853 1286.14 529.556 1286.15 529.562C1286.23 529.698 1286.27 529.856 1286.27 530.025C1286.27 530.536 1285.86 530.951 1285.35 530.951ZM1293.67 526.583C1293.67 526.59 1293.44 528.987 1293.33 530.08L1293.28 530.611C1293.25 530.849 1293.29 531.094 1293.4 531.322C1293.71 531.924 1294.45 532.164 1295.05 531.858C1295.51 531.624 1295.76 531.142 1295.71 530.66L1295.33 526.612C1295.32 526.502 1295.29 526.391 1295.24 526.286C1295.03 525.876 1294.53 525.713 1294.12 525.922C1293.85 526.056 1293.7 526.309 1293.67 526.583ZM1293.58 533.868C1293.59 533.866 1297.52 532.99 1297.53 532.989C1297.8 532.935 1298.09 533.004 1298.3 533.212C1298.63 533.537 1298.63 534.065 1298.3 534.39C1298.22 534.473 1298.12 534.535 1298.02 534.575L1294.29 536.197C1293.85 536.389 1293.31 536.301 1292.95 535.937C1292.47 535.459 1292.47 534.684 1292.94 534.206C1293.13 534.025 1293.35 533.919 1293.58 533.868ZM1291.06 535.968L1291.04 535.937L1290.58 535.162C1290.46 534.956 1290.29 534.776 1290.07 534.66C1289.46 534.353 1288.73 534.592 1288.42 535.195C1288.19 535.653 1288.27 536.19 1288.59 536.554L1291.28 539.601C1291.35 539.686 1291.44 539.759 1291.54 539.812C1291.95 540.021 1292.45 539.858 1292.66 539.449C1292.8 539.186 1292.77 538.889 1292.64 538.649C1292.64 538.644 1291.66 536.996 1291.06 535.968ZM1287.83 533.385C1287.04 534.277 1285.74 535.738 1285.74 535.742C1285.55 535.944 1285.28 536.058 1284.99 536.012C1284.53 535.94 1284.22 535.513 1284.3 535.058C1284.31 534.942 1284.36 534.836 1284.41 534.743L1286.48 531.241C1286.73 530.825 1287.22 530.582 1287.72 530.663C1288.39 530.769 1288.85 531.397 1288.74 532.065C1288.7 532.317 1288.58 532.533 1288.42 532.712C1288.42 532.714 1288.17 532.995 1287.83 533.385Z" fill="#FCFCFC"/>
  <path opacity="0.21" fill-rule="evenodd" clip-rule="evenodd" d="M1261.81 717.43C1261.72 717.154 1261.77 716.872 1261.91 716.641L1263.77 713.583C1263.91 713.342 1264.14 713.154 1264.43 713.06C1265.08 712.851 1265.77 713.203 1265.98 713.846C1266.12 714.289 1265.98 714.738 1265.7 715.068C1265.69 715.075 1263.38 717.756 1263.38 717.762C1263.27 717.879 1263.14 717.972 1262.98 718.024C1262.49 718.182 1261.97 717.916 1261.81 717.43ZM1260 720.425C1258.91 719.95 1257.38 719.286 1257.37 719.283C1257.12 719.168 1256.93 718.942 1256.88 718.651C1256.81 718.196 1257.12 717.77 1257.58 717.698C1257.69 717.679 1257.81 717.686 1257.91 717.714L1261.89 718.595C1262.36 718.702 1262.74 719.089 1262.82 719.597C1262.93 720.264 1262.47 720.892 1261.8 720.997C1261.55 721.037 1261.31 720.991 1261.09 720.895L1260 720.425ZM1268.58 721.087C1268.32 721.026 1268.03 721.062 1267.8 721.233C1267.38 721.534 1267.29 722.113 1267.59 722.526C1267.69 722.663 1267.82 722.763 1267.97 722.827C1267.98 722.831 1271.24 724.193 1271.25 724.196C1271.65 724.364 1272.12 724.354 1272.5 724.08C1273.04 723.681 1273.16 722.915 1272.76 722.369C1272.59 722.124 1272.34 721.962 1272.06 721.901L1268.58 721.087ZM1266.04 728.087C1266.27 728.258 1266.39 728.518 1266.42 728.787L1266.71 732.351C1266.74 732.63 1266.66 732.919 1266.48 733.164C1266.09 733.711 1265.32 733.832 1264.77 733.435C1264.4 733.162 1264.24 732.719 1264.28 732.284L1264.32 731.837L1264.32 731.825C1264.4 730.868 1264.57 728.747 1264.57 728.741C1264.59 728.584 1264.64 728.429 1264.74 728.292C1265.04 727.879 1265.62 727.787 1266.04 728.087ZM1258.41 729.123C1258.66 729.019 1258.87 728.822 1258.96 728.547C1259.12 728.061 1258.85 727.538 1258.37 727.38C1258.21 727.327 1258.04 727.322 1257.89 727.355C1257.88 727.357 1254.43 728.165 1254.43 728.167C1254 728.266 1253.63 728.55 1253.48 728.992C1253.27 729.635 1253.62 730.326 1254.27 730.535C1254.55 730.629 1254.85 730.613 1255.11 730.503L1258.41 729.123ZM1256.35 721.951C1256.06 721.951 1255.81 721.813 1255.63 721.609L1253.29 718.901C1253.11 718.689 1253 718.41 1253 718.108C1253 717.432 1253.55 716.883 1254.22 716.883C1254.69 716.883 1255.07 717.15 1255.3 717.523L1255.59 718C1256.11 718.853 1257.14 720.556 1257.15 720.562C1257.23 720.698 1257.27 720.856 1257.27 721.025C1257.27 721.536 1256.86 721.951 1256.35 721.951ZM1264.67 717.583C1264.67 717.59 1264.44 719.987 1264.33 721.08L1264.28 721.611C1264.25 721.849 1264.29 722.094 1264.4 722.322C1264.71 722.924 1265.45 723.164 1266.05 722.858C1266.51 722.624 1266.76 722.142 1266.71 721.66L1266.33 717.612C1266.32 717.502 1266.29 717.391 1266.24 717.286C1266.03 716.876 1265.53 716.713 1265.12 716.922C1264.85 717.056 1264.7 717.309 1264.67 717.583ZM1264.58 724.868C1264.59 724.866 1268.52 723.99 1268.53 723.989C1268.8 723.935 1269.09 724.004 1269.3 724.212C1269.63 724.537 1269.63 725.065 1269.3 725.39C1269.22 725.473 1269.12 725.535 1269.02 725.575L1265.29 727.197C1264.85 727.389 1264.31 727.301 1263.95 726.937C1263.47 726.459 1263.47 725.684 1263.94 725.206C1264.13 725.025 1264.35 724.919 1264.58 724.868ZM1262.06 726.968L1262.04 726.937L1261.58 726.162C1261.46 725.956 1261.29 725.776 1261.07 725.66C1260.46 725.353 1259.73 725.592 1259.42 726.195C1259.19 726.653 1259.27 727.19 1259.59 727.554L1262.28 730.601C1262.35 730.686 1262.44 730.759 1262.54 730.812C1262.95 731.021 1263.45 730.858 1263.66 730.449C1263.8 730.186 1263.77 729.889 1263.64 729.649C1263.64 729.644 1262.66 727.996 1262.06 726.968ZM1258.83 724.385C1258.04 725.277 1256.74 726.738 1256.74 726.742C1256.55 726.944 1256.28 727.058 1255.99 727.012C1255.53 726.94 1255.22 726.513 1255.3 726.058C1255.31 725.942 1255.36 725.836 1255.41 725.743L1257.48 722.241C1257.73 721.825 1258.22 721.582 1258.72 721.663C1259.39 721.769 1259.85 722.397 1259.74 723.065C1259.7 723.317 1259.58 723.533 1259.42 723.712C1259.42 723.714 1259.17 723.995 1258.83 724.385Z" fill="#FCFCFC"/>
  <path opacity="0.21" fill-rule="evenodd" clip-rule="evenodd" d="M1325.81 123.43C1325.72 123.154 1325.77 122.872 1325.91 122.641L1327.77 119.583C1327.91 119.342 1328.14 119.154 1328.43 119.06C1329.08 118.851 1329.77 119.203 1329.98 119.846C1330.12 120.289 1329.98 120.738 1329.7 121.068C1329.69 121.075 1327.38 123.756 1327.38 123.762C1327.27 123.879 1327.14 123.972 1326.98 124.024C1326.49 124.182 1325.97 123.916 1325.81 123.43ZM1324 126.425C1322.91 125.95 1321.38 125.286 1321.37 125.283C1321.12 125.168 1320.93 124.942 1320.88 124.651C1320.81 124.196 1321.12 123.77 1321.58 123.698C1321.69 123.679 1321.81 123.686 1321.91 123.714L1325.89 124.595C1326.36 124.702 1326.74 125.089 1326.82 125.597C1326.93 126.264 1326.47 126.892 1325.8 126.997C1325.55 127.037 1325.31 126.991 1325.09 126.895L1324 126.425ZM1332.58 127.087C1332.32 127.026 1332.03 127.062 1331.8 127.233C1331.38 127.534 1331.29 128.113 1331.59 128.526C1331.69 128.663 1331.82 128.763 1331.97 128.827C1331.98 128.831 1335.24 130.193 1335.25 130.196C1335.65 130.364 1336.12 130.354 1336.5 130.08C1337.04 129.681 1337.16 128.915 1336.76 128.369C1336.59 128.124 1336.34 127.962 1336.06 127.901L1332.58 127.087ZM1330.04 134.087C1330.27 134.258 1330.39 134.518 1330.42 134.787L1330.71 138.351C1330.74 138.63 1330.66 138.919 1330.48 139.164C1330.09 139.711 1329.32 139.832 1328.77 139.435C1328.4 139.162 1328.24 138.719 1328.28 138.284L1328.32 137.837L1328.32 137.825C1328.4 136.868 1328.57 134.747 1328.57 134.741C1328.59 134.584 1328.64 134.429 1328.74 134.292C1329.04 133.879 1329.62 133.787 1330.04 134.087ZM1322.41 135.123C1322.66 135.019 1322.87 134.822 1322.96 134.547C1323.12 134.061 1322.85 133.538 1322.37 133.38C1322.21 133.327 1322.04 133.322 1321.89 133.355C1321.88 133.357 1318.43 134.165 1318.43 134.167C1318 134.266 1317.63 134.55 1317.48 134.992C1317.27 135.635 1317.62 136.326 1318.27 136.535C1318.55 136.629 1318.85 136.613 1319.11 136.503L1322.41 135.123ZM1320.35 127.951C1320.06 127.951 1319.81 127.813 1319.63 127.609L1317.29 124.901C1317.11 124.689 1317 124.41 1317 124.108C1317 123.432 1317.55 122.883 1318.22 122.883C1318.69 122.883 1319.07 123.15 1319.3 123.523L1319.59 124C1320.11 124.853 1321.14 126.556 1321.15 126.562C1321.23 126.698 1321.27 126.856 1321.27 127.025C1321.27 127.536 1320.86 127.951 1320.35 127.951ZM1328.67 123.583C1328.67 123.59 1328.44 125.987 1328.33 127.08L1328.28 127.611C1328.25 127.849 1328.29 128.094 1328.4 128.322C1328.71 128.924 1329.45 129.164 1330.05 128.858C1330.51 128.624 1330.76 128.142 1330.71 127.66L1330.33 123.612C1330.32 123.502 1330.29 123.391 1330.24 123.286C1330.03 122.876 1329.53 122.713 1329.12 122.922C1328.85 123.056 1328.7 123.309 1328.67 123.583ZM1328.58 130.868C1328.59 130.866 1332.52 129.99 1332.53 129.989C1332.8 129.935 1333.09 130.004 1333.3 130.212C1333.63 130.537 1333.63 131.065 1333.3 131.39C1333.22 131.473 1333.12 131.535 1333.02 131.575L1329.29 133.197C1328.85 133.389 1328.31 133.301 1327.95 132.937C1327.47 132.459 1327.47 131.684 1327.94 131.206C1328.13 131.025 1328.35 130.919 1328.58 130.868ZM1326.06 132.968L1326.04 132.937L1325.58 132.162C1325.46 131.956 1325.29 131.776 1325.07 131.66C1324.46 131.353 1323.73 131.592 1323.42 132.195C1323.19 132.653 1323.27 133.19 1323.59 133.554L1326.28 136.601C1326.35 136.686 1326.44 136.759 1326.54 136.812C1326.95 137.021 1327.45 136.858 1327.66 136.449C1327.8 136.186 1327.77 135.889 1327.64 135.649C1327.64 135.644 1326.66 133.996 1326.06 132.968ZM1322.83 130.385C1322.04 131.277 1320.74 132.738 1320.74 132.742C1320.55 132.944 1320.28 133.058 1319.99 133.012C1319.53 132.94 1319.22 132.513 1319.3 132.058C1319.31 131.942 1319.36 131.836 1319.41 131.743L1321.48 128.241C1321.73 127.825 1322.22 127.582 1322.72 127.663C1323.39 127.769 1323.85 128.397 1323.74 129.065C1323.7 129.317 1323.58 129.533 1323.42 129.712C1323.42 129.714 1323.17 129.995 1322.83 130.385Z" fill="#FCFCFC"/>
  <path opacity="0.21" fill-rule="evenodd" clip-rule="evenodd" d="M1318.81 315.43C1318.72 315.154 1318.77 314.872 1318.91 314.641L1320.77 311.583C1320.91 311.342 1321.14 311.154 1321.43 311.06C1322.08 310.851 1322.77 311.203 1322.98 311.846C1323.12 312.289 1322.98 312.738 1322.7 313.068C1322.69 313.075 1320.38 315.756 1320.38 315.762C1320.27 315.879 1320.14 315.972 1319.98 316.024C1319.49 316.182 1318.97 315.916 1318.81 315.43ZM1317 318.425C1315.91 317.95 1314.38 317.286 1314.37 317.283C1314.12 317.168 1313.93 316.942 1313.88 316.651C1313.81 316.196 1314.12 315.77 1314.58 315.698C1314.69 315.679 1314.81 315.686 1314.91 315.714L1318.89 316.595C1319.36 316.702 1319.74 317.089 1319.82 317.597C1319.93 318.264 1319.47 318.892 1318.8 318.997C1318.55 319.037 1318.31 318.991 1318.09 318.895L1317 318.425ZM1325.58 319.087C1325.32 319.026 1325.03 319.062 1324.8 319.233C1324.38 319.534 1324.29 320.113 1324.59 320.526C1324.69 320.663 1324.82 320.763 1324.97 320.827C1324.98 320.831 1328.24 322.193 1328.25 322.196C1328.65 322.364 1329.12 322.354 1329.5 322.08C1330.04 321.681 1330.16 320.915 1329.76 320.369C1329.59 320.124 1329.34 319.962 1329.06 319.901L1325.58 319.087ZM1323.04 326.087C1323.27 326.258 1323.39 326.518 1323.42 326.787L1323.71 330.351C1323.74 330.63 1323.66 330.919 1323.48 331.164C1323.09 331.711 1322.32 331.832 1321.77 331.435C1321.4 331.162 1321.24 330.719 1321.28 330.284L1321.32 329.837L1321.32 329.825C1321.4 328.868 1321.57 326.747 1321.57 326.741C1321.59 326.584 1321.64 326.429 1321.74 326.292C1322.04 325.879 1322.62 325.787 1323.04 326.087ZM1315.41 327.123C1315.66 327.019 1315.87 326.822 1315.96 326.547C1316.12 326.061 1315.85 325.538 1315.37 325.38C1315.21 325.327 1315.04 325.322 1314.89 325.355C1314.88 325.357 1311.43 326.165 1311.43 326.167C1311 326.266 1310.63 326.55 1310.48 326.992C1310.27 327.635 1310.62 328.326 1311.27 328.535C1311.55 328.629 1311.85 328.613 1312.11 328.503L1315.41 327.123ZM1313.35 319.951C1313.06 319.951 1312.81 319.813 1312.63 319.609L1310.29 316.901C1310.11 316.689 1310 316.41 1310 316.108C1310 315.432 1310.55 314.883 1311.22 314.883C1311.69 314.883 1312.07 315.15 1312.3 315.523L1312.59 316C1313.11 316.853 1314.14 318.556 1314.15 318.562C1314.23 318.698 1314.27 318.856 1314.27 319.025C1314.27 319.536 1313.86 319.951 1313.35 319.951ZM1321.67 315.583C1321.67 315.59 1321.44 317.987 1321.33 319.08L1321.28 319.611C1321.25 319.849 1321.29 320.094 1321.4 320.322C1321.71 320.924 1322.45 321.164 1323.05 320.858C1323.51 320.624 1323.76 320.142 1323.71 319.66L1323.33 315.612C1323.32 315.502 1323.29 315.391 1323.24 315.286C1323.03 314.876 1322.53 314.713 1322.12 314.922C1321.85 315.056 1321.7 315.309 1321.67 315.583ZM1321.58 322.868C1321.59 322.866 1325.52 321.99 1325.53 321.989C1325.8 321.935 1326.09 322.004 1326.3 322.212C1326.63 322.537 1326.63 323.065 1326.3 323.39C1326.22 323.473 1326.12 323.535 1326.02 323.575L1322.29 325.197C1321.85 325.389 1321.31 325.301 1320.95 324.937C1320.47 324.459 1320.47 323.684 1320.94 323.206C1321.13 323.025 1321.35 322.919 1321.58 322.868ZM1319.06 324.968L1319.04 324.937L1318.58 324.162C1318.46 323.956 1318.29 323.776 1318.07 323.66C1317.46 323.353 1316.73 323.592 1316.42 324.195C1316.19 324.653 1316.27 325.19 1316.59 325.554L1319.28 328.601C1319.35 328.686 1319.44 328.759 1319.54 328.812C1319.95 329.021 1320.45 328.858 1320.66 328.449C1320.8 328.186 1320.77 327.889 1320.64 327.649C1320.64 327.644 1319.66 325.996 1319.06 324.968ZM1315.83 322.385C1315.04 323.277 1313.74 324.738 1313.74 324.742C1313.55 324.944 1313.28 325.058 1312.99 325.012C1312.53 324.94 1312.22 324.513 1312.3 324.058C1312.31 323.942 1312.36 323.836 1312.41 323.743L1314.48 320.241C1314.73 319.825 1315.22 319.582 1315.72 319.663C1316.39 319.769 1316.85 320.397 1316.74 321.065C1316.7 321.317 1316.58 321.533 1316.42 321.712C1316.42 321.714 1316.17 321.995 1315.83 322.385Z" fill="#FCFCFC"/>
  <path opacity="0.21" fill-rule="evenodd" clip-rule="evenodd" d="M849.809 29.43C849.719 29.154 849.773 28.8719 849.913 28.6407L851.768 25.5834C851.912 25.3423 852.144 25.1538 852.432 25.0603C853.076 24.8513 853.766 25.2032 853.975 25.8464C854.119 26.2886 853.983 26.7377 853.699 27.0684C853.693 27.075 851.384 29.7555 851.378 29.7619C851.272 29.8793 851.136 29.9719 850.975 30.0241C850.489 30.1821 849.967 29.9161 849.809 29.43ZM848.004 32.4251C846.91 31.9501 845.38 31.2856 845.375 31.2832C845.124 31.1681 844.931 30.9419 844.885 30.6508C844.813 30.1964 845.123 29.7697 845.577 29.6978C845.693 29.6795 845.807 29.6862 845.914 29.7136L849.885 30.5955C850.358 30.7016 850.739 31.0889 850.82 31.5966C850.925 32.2644 850.47 32.8916 849.802 32.9974C849.549 33.0374 849.306 32.9913 849.087 32.8954L848.004 32.4251ZM856.578 33.0867C856.315 33.0256 856.03 33.0622 855.796 33.2331C855.383 33.5342 855.292 34.1131 855.593 34.5262C855.693 34.6627 855.823 34.7632 855.967 34.8268C855.975 34.8306 859.241 36.1928 859.249 36.1961C859.652 36.3642 860.121 36.3537 860.497 36.0797C861.043 35.6814 861.163 34.9155 860.765 34.369C860.586 34.1245 860.335 33.9624 860.061 33.9006L856.578 33.0867ZM854.036 40.0872C854.271 40.2577 854.394 40.5176 854.417 40.7867L854.713 44.3505C854.739 44.6301 854.662 44.919 854.484 45.1639C854.086 45.711 853.321 45.8325 852.773 45.435C852.397 45.1618 852.243 44.7187 852.279 44.2837L852.316 43.837L852.317 43.8248C852.396 42.8679 852.572 40.7474 852.572 40.7406C852.589 40.5838 852.644 40.4289 852.744 40.2922C853.044 39.8786 853.623 39.7869 854.036 40.0872ZM846.412 41.1234C846.661 41.0188 846.87 40.8224 846.96 40.5465C847.119 40.0606 846.853 39.5382 846.367 39.3797C846.206 39.3274 846.042 39.3222 845.888 39.3551C845.879 39.3568 842.434 40.1647 842.426 40.1667C842.001 40.2664 841.627 40.5496 841.482 40.9917C841.273 41.6346 841.624 42.3257 842.267 42.5353C842.555 42.6291 842.854 42.6133 843.112 42.5031L846.412 41.1234ZM844.348 33.9512C844.057 33.9513 843.805 33.8131 843.629 33.6088L841.293 30.9005C841.108 30.6894 841 30.4104 841 30.1077C841 29.4315 841.548 28.8832 842.224 28.8829C842.689 28.8827 843.075 29.1504 843.301 29.5234L843.591 29.9997C844.11 30.8533 845.144 32.5563 845.147 32.5621C845.227 32.6984 845.273 32.8563 845.273 33.0253C845.273 33.5365 844.859 33.951 844.348 33.9512ZM852.667 29.5828C852.666 29.5896 852.435 31.9873 852.33 33.0799L852.279 33.6113C852.255 33.8489 852.286 34.0941 852.402 34.3218C852.709 34.9244 853.446 35.1643 854.049 34.8576C854.507 34.6244 854.758 34.1422 854.713 33.66L854.326 29.6117C854.32 29.5016 854.291 29.391 854.238 29.2864C854.029 28.8765 853.527 28.7133 853.117 28.922C852.854 29.0557 852.699 29.3094 852.667 29.5828ZM852.582 36.8683C852.591 36.8664 856.525 35.9904 856.533 35.9886C856.803 35.9346 857.093 36.0038 857.301 36.2121C857.627 36.5372 857.627 37.0646 857.302 37.3901C857.219 37.4731 857.123 37.5347 857.02 37.5754L853.29 39.1973C852.846 39.3895 852.309 39.3005 851.946 38.9372C851.467 38.4593 851.467 37.684 851.945 37.2056C852.125 37.0248 852.349 36.9193 852.582 36.8683ZM850.059 38.9682L850.04 38.9369L849.584 38.1624C849.463 37.9562 849.294 37.7762 849.066 37.66C848.464 37.3529 847.726 37.5922 847.419 38.1946C847.185 38.6526 847.266 39.19 847.586 39.5537L850.279 42.6014C850.349 42.6865 850.437 42.759 850.542 42.8123C850.952 43.0213 851.454 42.8585 851.663 42.4487C851.797 42.1861 851.773 41.8894 851.639 41.6492C851.636 41.644 850.665 39.9965 850.059 38.9682ZM846.827 36.3851C846.038 37.2766 844.745 38.7377 844.74 38.7422C844.554 38.9444 844.278 39.0581 843.987 39.0118C843.533 38.9395 843.223 38.5127 843.295 38.0583C843.314 37.9425 843.356 37.8362 843.415 37.743L845.483 34.2413C845.73 33.8248 846.217 33.5822 846.724 33.663C847.392 33.7692 847.848 34.3967 847.742 35.0645C847.701 35.3169 847.582 35.5335 847.423 35.7117C847.422 35.7136 847.173 35.9948 846.827 36.3851Z" fill="#FCFCFC"/>
  <path opacity="0.21" fill-rule="evenodd" clip-rule="evenodd" d="M37.809 18.43C37.7194 18.154 37.7731 17.8719 37.9129 17.6407L39.7684 14.5834C39.9123 14.3423 40.1444 14.1538 40.4323 14.0603C41.0756 13.8513 41.7665 14.2032 41.9755 14.8464C42.1192 15.2886 41.9835 15.7377 41.6986 16.0684C41.6929 16.075 39.3835 18.7555 39.3775 18.7619C39.2723 18.8793 39.1362 18.9719 38.9755 19.0241C38.4893 19.1821 37.967 18.9161 37.809 18.43ZM36.0044 21.4251C34.9102 20.9501 33.3797 20.2856 33.3746 20.2832C33.1244 20.1681 32.9311 19.9419 32.8849 19.6508C32.8129 19.1964 33.123 18.7697 33.5774 18.6978C33.6934 18.6795 33.8074 18.6862 33.9143 18.7136L37.8851 19.5955C38.3577 19.7016 38.7391 20.0889 38.8195 20.5966C38.9253 21.2644 38.4695 21.8916 37.8015 21.9974C37.549 22.0374 37.3062 21.9913 37.0875 21.8954L36.0044 21.4251ZM44.5783 22.0867C44.3151 22.0256 44.0302 22.0622 43.7957 22.2331C43.3826 22.5342 43.2919 23.1131 43.593 23.5262C43.6926 23.6627 43.8229 23.7632 43.9672 23.8268C43.9751 23.8306 47.2408 25.1928 47.2489 25.1961C47.6517 25.3642 48.1209 25.3537 48.4967 25.0797C49.0433 24.6814 49.1633 23.9155 48.7648 23.369C48.5865 23.1245 48.3352 22.9624 48.0614 22.9006L44.5783 22.0867ZM42.0364 29.0872C42.2713 29.2577 42.3937 29.5176 42.4166 29.7867L42.7134 33.3505C42.7387 33.6301 42.6618 33.919 42.4839 34.1639C42.0864 34.711 41.3206 34.8325 40.7733 34.435C40.3971 34.1618 40.2427 33.7187 40.2787 33.2837L40.3157 32.837L40.3167 32.8248C40.396 31.8679 40.5716 29.7474 40.5725 29.7406C40.5886 29.5838 40.6442 29.4289 40.7435 29.2922C41.0439 28.8786 41.6228 28.7869 42.0364 29.0872ZM34.4118 30.1234C34.6609 30.0188 34.8704 29.8224 34.9604 29.5465C35.1188 29.0606 34.8533 28.5382 34.3672 28.3797C34.2065 28.3274 34.042 28.3222 33.8878 28.3551C33.8792 28.3568 30.4342 29.1647 30.4257 29.1667C30.0007 29.2664 29.6266 29.5496 29.4824 29.9917C29.2728 30.6346 29.6241 31.3257 30.2671 31.5353C30.555 31.6291 30.8536 31.6133 31.1118 31.5031L34.4118 30.1234ZM32.3475 22.9512C32.0573 22.9513 31.8055 22.8131 31.6287 22.6088L29.2927 19.9005C29.1079 19.6894 29.0001 19.4104 29 19.1077C28.9998 18.4315 29.5478 17.8832 30.2242 17.8829C30.6892 17.8827 31.0747 18.1504 31.3014 18.5234L31.5908 18.9997C32.1095 19.8533 33.1443 21.5563 33.1474 21.5621C33.2266 21.6984 33.2728 21.8563 33.2728 22.0253C33.273 22.5365 32.8587 22.951 32.3475 22.9512ZM40.6666 18.5828C40.6658 18.5896 40.4351 20.9873 40.3299 22.0799L40.2788 22.6113C40.255 22.8489 40.2861 23.0941 40.402 23.3218C40.7089 23.9244 41.4462 24.1643 42.049 23.8576C42.5072 23.6244 42.758 23.1422 42.713 22.66L42.3265 18.6117C42.3195 18.5016 42.2908 18.391 42.2375 18.2864C42.0288 17.8765 41.5272 17.7133 41.1171 17.922C40.8544 18.0557 40.6988 18.3094 40.6666 18.5828ZM40.5822 25.8683C40.5907 25.8664 44.5248 24.9904 44.5334 24.9886C44.8034 24.9346 45.0928 25.0038 45.3014 25.2121C45.627 25.5372 45.6272 26.0646 45.302 26.3901C45.219 26.4731 45.1229 26.5347 45.0203 26.5754L41.2902 28.1973C40.8456 28.3895 40.3093 28.3005 39.9456 27.9372C39.4671 27.4593 39.4667 26.684 39.9447 26.2056C40.1254 26.0248 40.3489 25.9193 40.5822 25.8683ZM38.0585 27.9682L38.0401 27.9369L37.5836 27.1624C37.4631 26.9562 37.2939 26.7762 37.0661 26.66C36.4636 26.3529 35.726 26.5922 35.4188 27.1946C35.1852 27.6526 35.2659 28.19 35.5858 28.5537L38.2788 31.6014C38.3492 31.6865 38.4374 31.759 38.5419 31.8123C38.9519 32.0213 39.4536 31.8585 39.6626 31.4487C39.7965 31.1861 39.7732 30.8894 39.6385 30.6492C39.6356 30.644 38.6645 28.9965 38.0585 27.9682ZM34.8272 25.3851C34.038 26.2766 32.7446 27.7377 32.7404 27.7422C32.5535 27.9444 32.2785 28.0581 31.9873 28.0118C31.5329 27.9395 31.2231 27.5127 31.2954 27.0583C31.3139 26.9425 31.3556 26.8362 31.4148 26.743L33.4831 23.2413C33.7303 22.8248 34.2167 22.5822 34.7245 22.663C35.3924 22.7692 35.8478 23.3967 35.7415 24.0645C35.7014 24.3169 35.5824 24.5335 35.4234 24.7117C35.4216 24.7136 35.1728 24.9948 34.8272 25.3851Z" fill="#FCFCFC"/>
  <path opacity="0.21" fill-rule="evenodd" clip-rule="evenodd" d="M147.809 63.43C147.719 63.154 147.773 62.8719 147.913 62.6407L149.768 59.5834C149.912 59.3423 150.144 59.1538 150.432 59.0603C151.076 58.8513 151.766 59.2032 151.975 59.8464C152.119 60.2886 151.983 60.7377 151.699 61.0684C151.693 61.075 149.384 63.7555 149.378 63.7619C149.272 63.8793 149.136 63.9719 148.975 64.0241C148.489 64.1821 147.967 63.9161 147.809 63.43ZM146.004 66.4251C144.91 65.9501 143.38 65.2856 143.375 65.2832C143.124 65.1681 142.931 64.9419 142.885 64.6508C142.813 64.1964 143.123 63.7697 143.577 63.6978C143.693 63.6795 143.807 63.6862 143.914 63.7136L147.885 64.5955C148.358 64.7016 148.739 65.0889 148.82 65.5966C148.925 66.2644 148.47 66.8916 147.802 66.9974C147.549 67.0374 147.306 66.9913 147.087 66.8954L146.004 66.4251ZM154.578 67.0867C154.315 67.0256 154.03 67.0622 153.796 67.2331C153.383 67.5342 153.292 68.1131 153.593 68.5262C153.693 68.6627 153.823 68.7632 153.967 68.8268C153.975 68.8306 157.241 70.1928 157.249 70.1961C157.652 70.3642 158.121 70.3537 158.497 70.0797C159.043 69.6814 159.163 68.9155 158.765 68.369C158.586 68.1245 158.335 67.9624 158.061 67.9006L154.578 67.0867ZM152.036 74.0872C152.271 74.2577 152.394 74.5176 152.417 74.7867L152.713 78.3505C152.739 78.6301 152.662 78.919 152.484 79.1639C152.086 79.711 151.321 79.8325 150.773 79.435C150.397 79.1618 150.243 78.7187 150.279 78.2837L150.316 77.837L150.317 77.8248C150.396 76.8679 150.572 74.7474 150.572 74.7406C150.589 74.5838 150.644 74.4289 150.744 74.2922C151.044 73.8786 151.623 73.7869 152.036 74.0872ZM144.412 75.1234C144.661 75.0188 144.87 74.8224 144.96 74.5465C145.119 74.0606 144.853 73.5382 144.367 73.3797C144.206 73.3274 144.042 73.3222 143.888 73.3551C143.879 73.3568 140.434 74.1647 140.426 74.1667C140.001 74.2664 139.627 74.5496 139.482 74.9917C139.273 75.6346 139.624 76.3257 140.267 76.5353C140.555 76.6291 140.854 76.6133 141.112 76.5031L144.412 75.1234ZM142.348 67.9512C142.057 67.9513 141.805 67.8131 141.629 67.6088L139.293 64.9005C139.108 64.6894 139 64.4104 139 64.1077C139 63.4315 139.548 62.8832 140.224 62.8829C140.689 62.8827 141.075 63.1504 141.301 63.5234L141.591 63.9997C142.11 64.8533 143.144 66.5563 143.147 66.5621C143.227 66.6984 143.273 66.8563 143.273 67.0253C143.273 67.5365 142.859 67.951 142.348 67.9512ZM150.667 63.5828C150.666 63.5896 150.435 65.9873 150.33 67.0799L150.279 67.6113C150.255 67.8489 150.286 68.0941 150.402 68.3218C150.709 68.9244 151.446 69.1643 152.049 68.8576C152.507 68.6244 152.758 68.1422 152.713 67.66L152.326 63.6117C152.32 63.5016 152.291 63.391 152.238 63.2864C152.029 62.8765 151.527 62.7133 151.117 62.922C150.854 63.0557 150.699 63.3094 150.667 63.5828ZM150.582 70.8683C150.591 70.8664 154.525 69.9904 154.533 69.9886C154.803 69.9346 155.093 70.0038 155.301 70.2121C155.627 70.5372 155.627 71.0646 155.302 71.3901C155.219 71.4731 155.123 71.5347 155.02 71.5754L151.29 73.1973C150.846 73.3895 150.309 73.3005 149.946 72.9372C149.467 72.4593 149.467 71.684 149.945 71.2056C150.125 71.0248 150.349 70.9193 150.582 70.8683ZM148.059 72.9682L148.04 72.9369L147.584 72.1624C147.463 71.9562 147.294 71.7762 147.066 71.66C146.464 71.3529 145.726 71.5922 145.419 72.1946C145.185 72.6526 145.266 73.19 145.586 73.5537L148.279 76.6014C148.349 76.6865 148.437 76.759 148.542 76.8123C148.952 77.0213 149.454 76.8585 149.663 76.4487C149.797 76.1861 149.773 75.8894 149.639 75.6492C149.636 75.644 148.665 73.9965 148.059 72.9682ZM144.827 70.3851C144.038 71.2766 142.745 72.7377 142.74 72.7422C142.554 72.9444 142.278 73.0581 141.987 73.0118C141.533 72.9395 141.223 72.5127 141.295 72.0583C141.314 71.9425 141.356 71.8362 141.415 71.743L143.483 68.2413C143.73 67.8248 144.217 67.5822 144.724 67.663C145.392 67.7692 145.848 68.3967 145.742 69.0645C145.701 69.3169 145.582 69.5335 145.423 69.7117C145.422 69.7136 145.173 69.9948 144.827 70.3851Z" fill="#FCFCFC"/>
  <path opacity="0.21" fill-rule="evenodd" clip-rule="evenodd" d="M554.809 29.43C554.719 29.154 554.773 28.8719 554.913 28.6407L556.768 25.5834C556.912 25.3423 557.144 25.1538 557.432 25.0603C558.076 24.8513 558.766 25.2032 558.975 25.8464C559.119 26.2886 558.983 26.7377 558.699 27.0684C558.693 27.075 556.384 29.7555 556.378 29.7619C556.272 29.8793 556.136 29.9719 555.975 30.0241C555.489 30.1821 554.967 29.9161 554.809 29.43ZM553.004 32.4251C551.91 31.9501 550.38 31.2856 550.375 31.2832C550.124 31.1681 549.931 30.9419 549.885 30.6508C549.813 30.1964 550.123 29.7697 550.577 29.6978C550.693 29.6795 550.807 29.6862 550.914 29.7136L554.885 30.5955C555.358 30.7016 555.739 31.0889 555.82 31.5966C555.925 32.2644 555.47 32.8916 554.802 32.9974C554.549 33.0374 554.306 32.9913 554.087 32.8954L553.004 32.4251ZM561.578 33.0867C561.315 33.0256 561.03 33.0622 560.796 33.2331C560.383 33.5342 560.292 34.1131 560.593 34.5262C560.693 34.6627 560.823 34.7632 560.967 34.8268C560.975 34.8306 564.241 36.1928 564.249 36.1961C564.652 36.3642 565.121 36.3537 565.497 36.0797C566.043 35.6814 566.163 34.9155 565.765 34.369C565.586 34.1245 565.335 33.9624 565.061 33.9006L561.578 33.0867ZM559.036 40.0872C559.271 40.2577 559.394 40.5176 559.417 40.7867L559.713 44.3505C559.739 44.6301 559.662 44.919 559.484 45.1639C559.086 45.711 558.321 45.8325 557.773 45.435C557.397 45.1618 557.243 44.7187 557.279 44.2837L557.316 43.837L557.317 43.8248C557.396 42.8679 557.572 40.7474 557.572 40.7406C557.589 40.5838 557.644 40.4289 557.744 40.2922C558.044 39.8786 558.623 39.7869 559.036 40.0872ZM551.412 41.1234C551.661 41.0188 551.87 40.8224 551.96 40.5465C552.119 40.0606 551.853 39.5382 551.367 39.3797C551.206 39.3274 551.042 39.3222 550.888 39.3551C550.879 39.3568 547.434 40.1647 547.426 40.1667C547.001 40.2664 546.627 40.5496 546.482 40.9917C546.273 41.6346 546.624 42.3257 547.267 42.5353C547.555 42.6291 547.854 42.6133 548.112 42.5031L551.412 41.1234ZM549.348 33.9512C549.057 33.9513 548.805 33.8131 548.629 33.6088L546.293 30.9005C546.108 30.6894 546 30.4104 546 30.1077C546 29.4315 546.548 28.8832 547.224 28.8829C547.689 28.8827 548.075 29.1504 548.301 29.5234L548.591 29.9997C549.11 30.8533 550.144 32.5563 550.147 32.5621C550.227 32.6984 550.273 32.8563 550.273 33.0253C550.273 33.5365 549.859 33.951 549.348 33.9512ZM557.667 29.5828C557.666 29.5896 557.435 31.9873 557.33 33.0799L557.279 33.6113C557.255 33.8489 557.286 34.0941 557.402 34.3218C557.709 34.9244 558.446 35.1643 559.049 34.8576C559.507 34.6244 559.758 34.1422 559.713 33.66L559.326 29.6117C559.32 29.5016 559.291 29.391 559.238 29.2864C559.029 28.8765 558.527 28.7133 558.117 28.922C557.854 29.0557 557.699 29.3094 557.667 29.5828ZM557.582 36.8683C557.591 36.8664 561.525 35.9904 561.533 35.9886C561.803 35.9346 562.093 36.0038 562.301 36.2121C562.627 36.5372 562.627 37.0646 562.302 37.3901C562.219 37.4731 562.123 37.5347 562.02 37.5754L558.29 39.1973C557.846 39.3895 557.309 39.3005 556.946 38.9372C556.467 38.4593 556.467 37.684 556.945 37.2056C557.125 37.0248 557.349 36.9193 557.582 36.8683ZM555.059 38.9682L555.04 38.9369L554.584 38.1624C554.463 37.9562 554.294 37.7762 554.066 37.66C553.464 37.3529 552.726 37.5922 552.419 38.1946C552.185 38.6526 552.266 39.19 552.586 39.5537L555.279 42.6014C555.349 42.6865 555.437 42.759 555.542 42.8123C555.952 43.0213 556.454 42.8585 556.663 42.4487C556.797 42.1861 556.773 41.8894 556.639 41.6492C556.636 41.644 555.665 39.9965 555.059 38.9682ZM551.827 36.3851C551.038 37.2766 549.745 38.7377 549.74 38.7422C549.554 38.9444 549.278 39.0581 548.987 39.0118C548.533 38.9395 548.223 38.5127 548.295 38.0583C548.314 37.9425 548.356 37.8362 548.415 37.743L550.483 34.2413C550.73 33.8248 551.217 33.5822 551.724 33.663C552.392 33.7692 552.848 34.3967 552.742 35.0645C552.701 35.3169 552.582 35.5335 552.423 35.7117C552.422 35.7136 552.173 35.9948 551.827 36.3851Z" fill="#FCFCFC"/>
  <path opacity="0.21" fill-rule="evenodd" clip-rule="evenodd" d="M616.809 358.43C616.719 358.154 616.773 357.872 616.913 357.641L618.768 354.583C618.912 354.342 619.144 354.154 619.432 354.06C620.076 353.851 620.766 354.203 620.975 354.846C621.119 355.289 620.983 355.738 620.699 356.068C620.693 356.075 618.384 358.756 618.378 358.762C618.272 358.879 618.136 358.972 617.975 359.024C617.489 359.182 616.967 358.916 616.809 358.43ZM615.004 361.425C613.91 360.95 612.38 360.286 612.375 360.283C612.124 360.168 611.931 359.942 611.885 359.651C611.813 359.196 612.123 358.77 612.577 358.698C612.693 358.679 612.807 358.686 612.914 358.714L616.885 359.595C617.358 359.702 617.739 360.089 617.82 360.597C617.925 361.264 617.47 361.892 616.802 361.997C616.549 362.037 616.306 361.991 616.087 361.895L615.004 361.425ZM623.578 362.087C623.315 362.026 623.03 362.062 622.796 362.233C622.383 362.534 622.292 363.113 622.593 363.526C622.693 363.663 622.823 363.763 622.967 363.827C622.975 363.831 626.241 365.193 626.249 365.196C626.652 365.364 627.121 365.354 627.497 365.08C628.043 364.681 628.163 363.915 627.765 363.369C627.586 363.124 627.335 362.962 627.061 362.901L623.578 362.087ZM621.036 369.087C621.271 369.258 621.394 369.518 621.417 369.787L621.713 373.351C621.739 373.63 621.662 373.919 621.484 374.164C621.086 374.711 620.321 374.832 619.773 374.435C619.397 374.162 619.243 373.719 619.279 373.284L619.316 372.837L619.317 372.825C619.396 371.868 619.572 369.747 619.572 369.741C619.589 369.584 619.644 369.429 619.744 369.292C620.044 368.879 620.623 368.787 621.036 369.087ZM613.412 370.123C613.661 370.019 613.87 369.822 613.96 369.547C614.119 369.061 613.853 368.538 613.367 368.38C613.206 368.327 613.042 368.322 612.888 368.355C612.879 368.357 609.434 369.165 609.426 369.167C609.001 369.266 608.627 369.55 608.482 369.992C608.273 370.635 608.624 371.326 609.267 371.535C609.555 371.629 609.854 371.613 610.112 371.503L613.412 370.123ZM611.348 362.951C611.057 362.951 610.805 362.813 610.629 362.609L608.293 359.901C608.108 359.689 608 359.41 608 359.108C608 358.432 608.548 357.883 609.224 357.883C609.689 357.883 610.075 358.15 610.301 358.523L610.591 359C611.11 359.853 612.144 361.556 612.147 361.562C612.227 361.698 612.273 361.856 612.273 362.025C612.273 362.536 611.859 362.951 611.348 362.951ZM619.667 358.583C619.666 358.59 619.435 360.987 619.33 362.08L619.279 362.611C619.255 362.849 619.286 363.094 619.402 363.322C619.709 363.924 620.446 364.164 621.049 363.858C621.507 363.624 621.758 363.142 621.713 362.66L621.326 358.612C621.32 358.502 621.291 358.391 621.238 358.286C621.029 357.876 620.527 357.713 620.117 357.922C619.854 358.056 619.699 358.309 619.667 358.583ZM619.582 365.868C619.591 365.866 623.525 364.99 623.533 364.989C623.803 364.935 624.093 365.004 624.301 365.212C624.627 365.537 624.627 366.065 624.302 366.39C624.219 366.473 624.123 366.535 624.02 366.575L620.29 368.197C619.846 368.389 619.309 368.301 618.946 367.937C618.467 367.459 618.467 366.684 618.945 366.206C619.125 366.025 619.349 365.919 619.582 365.868ZM617.059 367.968L617.04 367.937L616.584 367.162C616.463 366.956 616.294 366.776 616.066 366.66C615.464 366.353 614.726 366.592 614.419 367.195C614.185 367.653 614.266 368.19 614.586 368.554L617.279 371.601C617.349 371.686 617.437 371.759 617.542 371.812C617.952 372.021 618.454 371.858 618.663 371.449C618.797 371.186 618.773 370.889 618.639 370.649C618.636 370.644 617.665 368.996 617.059 367.968ZM613.827 365.385C613.038 366.277 611.745 367.738 611.74 367.742C611.554 367.944 611.278 368.058 610.987 368.012C610.533 367.94 610.223 367.513 610.295 367.058C610.314 366.942 610.356 366.836 610.415 366.743L612.483 363.241C612.73 362.825 613.217 362.582 613.724 362.663C614.392 362.769 614.848 363.397 614.742 364.065C614.701 364.317 614.582 364.533 614.423 364.712C614.422 364.714 614.173 364.995 613.827 365.385Z" fill="#FCFCFC"/>
  <path opacity="0.21" fill-rule="evenodd" clip-rule="evenodd" d="M47.809 88.43C47.7194 88.154 47.7731 87.8719 47.9129 87.6407L49.7684 84.5834C49.9123 84.3423 50.1444 84.1538 50.4323 84.0603C51.0756 83.8513 51.7665 84.2032 51.9755 84.8464C52.1192 85.2886 51.9835 85.7377 51.6986 86.0684C51.6929 86.075 49.3835 88.7555 49.3775 88.7619C49.2723 88.8793 49.1362 88.9719 48.9755 89.0241C48.4893 89.1821 47.967 88.9161 47.809 88.43ZM46.0044 91.4251C44.9102 90.9501 43.3797 90.2856 43.3746 90.2832C43.1244 90.1681 42.9311 89.9419 42.8849 89.6508C42.8129 89.1964 43.123 88.7697 43.5774 88.6978C43.6934 88.6795 43.8074 88.6862 43.9143 88.7136L47.8851 89.5955C48.3577 89.7016 48.7391 90.0889 48.8195 90.5966C48.9253 91.2644 48.4695 91.8916 47.8015 91.9974C47.549 92.0374 47.3062 91.9913 47.0875 91.8954L46.0044 91.4251ZM54.5783 92.0867C54.3151 92.0256 54.0302 92.0622 53.7957 92.2331C53.3826 92.5342 53.2919 93.1131 53.593 93.5262C53.6926 93.6627 53.8229 93.7632 53.9672 93.8268C53.9751 93.8306 57.2408 95.1928 57.2489 95.1961C57.6517 95.3642 58.1209 95.3537 58.4967 95.0797C59.0433 94.6814 59.1633 93.9155 58.7648 93.369C58.5865 93.1245 58.3352 92.9624 58.0614 92.9006L54.5783 92.0867ZM52.0364 99.0872C52.2713 99.2577 52.3937 99.5176 52.4166 99.7867L52.7134 103.351C52.7387 103.63 52.6618 103.919 52.4839 104.164C52.0864 104.711 51.3206 104.832 50.7733 104.435C50.3971 104.162 50.2427 103.719 50.2787 103.284L50.3157 102.837L50.3167 102.825C50.396 101.868 50.5716 99.7474 50.5725 99.7406C50.5886 99.5838 50.6442 99.4289 50.7435 99.2922C51.0439 98.8786 51.6228 98.7869 52.0364 99.0872ZM44.4118 100.123C44.6609 100.019 44.8704 99.8224 44.9604 99.5465C45.1188 99.0606 44.8533 98.5382 44.3672 98.3797C44.2065 98.3274 44.042 98.3222 43.8878 98.3551C43.8792 98.3568 40.4342 99.1647 40.4257 99.1667C40.0007 99.2664 39.6266 99.5496 39.4824 99.9917C39.2728 100.635 39.6241 101.326 40.2671 101.535C40.555 101.629 40.8536 101.613 41.1118 101.503L44.4118 100.123ZM42.3475 92.9512C42.0573 92.9513 41.8055 92.8131 41.6287 92.6088L39.2927 89.9005C39.1079 89.6894 39.0001 89.4104 39 89.1077C38.9998 88.4315 39.5478 87.8832 40.2242 87.8829C40.6892 87.8827 41.0747 88.1504 41.3014 88.5234L41.5908 88.9997C42.1095 89.8533 43.1443 91.5563 43.1474 91.5621C43.2266 91.6984 43.2728 91.8563 43.2728 92.0253C43.273 92.5365 42.8587 92.951 42.3475 92.9512ZM50.6666 88.5828C50.6658 88.5896 50.4351 90.9873 50.3299 92.0799L50.2788 92.6113C50.255 92.8489 50.2861 93.0941 50.402 93.3218C50.7089 93.9244 51.4462 94.1643 52.049 93.8576C52.5072 93.6244 52.758 93.1422 52.713 92.66L52.3265 88.6117C52.3195 88.5016 52.2908 88.391 52.2375 88.2864C52.0288 87.8765 51.5272 87.7133 51.1171 87.922C50.8544 88.0557 50.6988 88.3094 50.6666 88.5828ZM50.5822 95.8683C50.5907 95.8664 54.5248 94.9904 54.5334 94.9886C54.8034 94.9346 55.0928 95.0038 55.3014 95.2121C55.627 95.5372 55.6272 96.0646 55.302 96.3901C55.219 96.4731 55.1229 96.5347 55.0203 96.5754L51.2902 98.1973C50.8456 98.3895 50.3093 98.3005 49.9456 97.9372C49.4671 97.4593 49.4667 96.684 49.9447 96.2056C50.1254 96.0248 50.3489 95.9193 50.5822 95.8683ZM48.0585 97.9682L48.0401 97.9369L47.5836 97.1624C47.4631 96.9562 47.2939 96.7762 47.0661 96.66C46.4636 96.3529 45.726 96.5922 45.4188 97.1946C45.1852 97.6526 45.2659 98.19 45.5858 98.5537L48.2788 101.601C48.3492 101.686 48.4374 101.759 48.5419 101.812C48.9519 102.021 49.4536 101.858 49.6626 101.449C49.7965 101.186 49.7732 100.889 49.6385 100.649C49.6356 100.644 48.6645 98.9965 48.0585 97.9682ZM44.8272 95.3851C44.038 96.2766 42.7446 97.7377 42.7404 97.7422C42.5535 97.9444 42.2785 98.0581 41.9873 98.0118C41.5329 97.9395 41.2231 97.5127 41.2954 97.0583C41.3139 96.9425 41.3556 96.8362 41.4148 96.743L43.4831 93.2413C43.7303 92.8248 44.2167 92.5822 44.7245 92.663C45.3924 92.7692 45.8478 93.3967 45.7415 94.0645C45.7014 94.3169 45.5824 94.5335 45.4234 94.7117C45.4216 94.7136 45.1728 94.9948 44.8272 95.3851Z" fill="#FCFCFC"/>
  <path opacity="0.21" fill-rule="evenodd" clip-rule="evenodd" d="M390.809 660.43C390.719 660.154 390.773 659.872 390.913 659.641L392.768 656.583C392.912 656.342 393.144 656.154 393.432 656.06C394.076 655.851 394.766 656.203 394.975 656.846C395.119 657.289 394.983 657.738 394.699 658.068C394.693 658.075 392.384 660.756 392.378 660.762C392.272 660.879 392.136 660.972 391.975 661.024C391.489 661.182 390.967 660.916 390.809 660.43ZM389.004 663.425C387.91 662.95 386.38 662.286 386.375 662.283C386.124 662.168 385.931 661.942 385.885 661.651C385.813 661.196 386.123 660.77 386.577 660.698C386.693 660.679 386.807 660.686 386.914 660.714L390.885 661.595C391.358 661.702 391.739 662.089 391.82 662.597C391.925 663.264 391.47 663.892 390.802 663.997C390.549 664.037 390.306 663.991 390.087 663.895L389.004 663.425ZM397.578 664.087C397.315 664.026 397.03 664.062 396.796 664.233C396.383 664.534 396.292 665.113 396.593 665.526C396.693 665.663 396.823 665.763 396.967 665.827C396.975 665.831 400.241 667.193 400.249 667.196C400.652 667.364 401.121 667.354 401.497 667.08C402.043 666.681 402.163 665.915 401.765 665.369C401.586 665.124 401.335 664.962 401.061 664.901L397.578 664.087ZM395.036 671.087C395.271 671.258 395.394 671.518 395.417 671.787L395.713 675.351C395.739 675.63 395.662 675.919 395.484 676.164C395.086 676.711 394.321 676.832 393.773 676.435C393.397 676.162 393.243 675.719 393.279 675.284L393.316 674.837L393.317 674.825C393.396 673.868 393.572 671.747 393.572 671.741C393.589 671.584 393.644 671.429 393.744 671.292C394.044 670.879 394.623 670.787 395.036 671.087ZM387.412 672.123C387.661 672.019 387.87 671.822 387.96 671.547C388.119 671.061 387.853 670.538 387.367 670.38C387.206 670.327 387.042 670.322 386.888 670.355C386.879 670.357 383.434 671.165 383.426 671.167C383.001 671.266 382.627 671.55 382.482 671.992C382.273 672.635 382.624 673.326 383.267 673.535C383.555 673.629 383.854 673.613 384.112 673.503L387.412 672.123ZM385.348 664.951C385.057 664.951 384.805 664.813 384.629 664.609L382.293 661.901C382.108 661.689 382 661.41 382 661.108C382 660.432 382.548 659.883 383.224 659.883C383.689 659.883 384.075 660.15 384.301 660.523L384.591 661C385.11 661.853 386.144 663.556 386.147 663.562C386.227 663.698 386.273 663.856 386.273 664.025C386.273 664.536 385.859 664.951 385.348 664.951ZM393.667 660.583C393.666 660.59 393.435 662.987 393.33 664.08L393.279 664.611C393.255 664.849 393.286 665.094 393.402 665.322C393.709 665.924 394.446 666.164 395.049 665.858C395.507 665.624 395.758 665.142 395.713 664.66L395.326 660.612C395.32 660.502 395.291 660.391 395.238 660.286C395.029 659.876 394.527 659.713 394.117 659.922C393.854 660.056 393.699 660.309 393.667 660.583ZM393.582 667.868C393.591 667.866 397.525 666.99 397.533 666.989C397.803 666.935 398.093 667.004 398.301 667.212C398.627 667.537 398.627 668.065 398.302 668.39C398.219 668.473 398.123 668.535 398.02 668.575L394.29 670.197C393.846 670.389 393.309 670.301 392.946 669.937C392.467 669.459 392.467 668.684 392.945 668.206C393.125 668.025 393.349 667.919 393.582 667.868ZM391.059 669.968L391.04 669.937L390.584 669.162C390.463 668.956 390.294 668.776 390.066 668.66C389.464 668.353 388.726 668.592 388.419 669.195C388.185 669.653 388.266 670.19 388.586 670.554L391.279 673.601C391.349 673.686 391.437 673.759 391.542 673.812C391.952 674.021 392.454 673.858 392.663 673.449C392.797 673.186 392.773 672.889 392.639 672.649C392.636 672.644 391.665 670.996 391.059 669.968ZM387.827 667.385C387.038 668.277 385.745 669.738 385.74 669.742C385.554 669.944 385.278 670.058 384.987 670.012C384.533 669.94 384.223 669.513 384.295 669.058C384.314 668.942 384.356 668.836 384.415 668.743L386.483 665.241C386.73 664.825 387.217 664.582 387.724 664.663C388.392 664.769 388.848 665.397 388.742 666.065C388.701 666.317 388.582 666.533 388.423 666.712C388.422 666.714 388.173 666.995 387.827 667.385Z" fill="#FCFCFC"/>
  <path opacity="0.21" fill-rule="evenodd" clip-rule="evenodd" d="M544.809 710.43C544.719 710.154 544.773 709.872 544.913 709.641L546.768 706.583C546.912 706.342 547.144 706.154 547.432 706.06C548.076 705.851 548.766 706.203 548.975 706.846C549.119 707.289 548.983 707.738 548.699 708.068C548.693 708.075 546.384 710.756 546.378 710.762C546.272 710.879 546.136 710.972 545.975 711.024C545.489 711.182 544.967 710.916 544.809 710.43ZM543.004 713.425C541.91 712.95 540.38 712.286 540.375 712.283C540.124 712.168 539.931 711.942 539.885 711.651C539.813 711.196 540.123 710.77 540.577 710.698C540.693 710.679 540.807 710.686 540.914 710.714L544.885 711.595C545.358 711.702 545.739 712.089 545.82 712.597C545.925 713.264 545.47 713.892 544.802 713.997C544.549 714.037 544.306 713.991 544.087 713.895L543.004 713.425ZM551.578 714.087C551.315 714.026 551.03 714.062 550.796 714.233C550.383 714.534 550.292 715.113 550.593 715.526C550.693 715.663 550.823 715.763 550.967 715.827C550.975 715.831 554.241 717.193 554.249 717.196C554.652 717.364 555.121 717.354 555.497 717.08C556.043 716.681 556.163 715.915 555.765 715.369C555.586 715.124 555.335 714.962 555.061 714.901L551.578 714.087ZM549.036 721.087C549.271 721.258 549.394 721.518 549.417 721.787L549.713 725.351C549.739 725.63 549.662 725.919 549.484 726.164C549.086 726.711 548.321 726.832 547.773 726.435C547.397 726.162 547.243 725.719 547.279 725.284L547.316 724.837L547.317 724.825C547.396 723.868 547.572 721.747 547.572 721.741C547.589 721.584 547.644 721.429 547.744 721.292C548.044 720.879 548.623 720.787 549.036 721.087ZM541.412 722.123C541.661 722.019 541.87 721.822 541.96 721.547C542.119 721.061 541.853 720.538 541.367 720.38C541.206 720.327 541.042 720.322 540.888 720.355C540.879 720.357 537.434 721.165 537.426 721.167C537.001 721.266 536.627 721.55 536.482 721.992C536.273 722.635 536.624 723.326 537.267 723.535C537.555 723.629 537.854 723.613 538.112 723.503L541.412 722.123ZM539.348 714.951C539.057 714.951 538.805 714.813 538.629 714.609L536.293 711.901C536.108 711.689 536 711.41 536 711.108C536 710.432 536.548 709.883 537.224 709.883C537.689 709.883 538.075 710.15 538.301 710.523L538.591 711C539.11 711.853 540.144 713.556 540.147 713.562C540.227 713.698 540.273 713.856 540.273 714.025C540.273 714.536 539.859 714.951 539.348 714.951ZM547.667 710.583C547.666 710.59 547.435 712.987 547.33 714.08L547.279 714.611C547.255 714.849 547.286 715.094 547.402 715.322C547.709 715.924 548.446 716.164 549.049 715.858C549.507 715.624 549.758 715.142 549.713 714.66L549.326 710.612C549.32 710.502 549.291 710.391 549.238 710.286C549.029 709.876 548.527 709.713 548.117 709.922C547.854 710.056 547.699 710.309 547.667 710.583ZM547.582 717.868C547.591 717.866 551.525 716.99 551.533 716.989C551.803 716.935 552.093 717.004 552.301 717.212C552.627 717.537 552.627 718.065 552.302 718.39C552.219 718.473 552.123 718.535 552.02 718.575L548.29 720.197C547.846 720.389 547.309 720.301 546.946 719.937C546.467 719.459 546.467 718.684 546.945 718.206C547.125 718.025 547.349 717.919 547.582 717.868ZM545.059 719.968L545.04 719.937L544.584 719.162C544.463 718.956 544.294 718.776 544.066 718.66C543.464 718.353 542.726 718.592 542.419 719.195C542.185 719.653 542.266 720.19 542.586 720.554L545.279 723.601C545.349 723.686 545.437 723.759 545.542 723.812C545.952 724.021 546.454 723.858 546.663 723.449C546.797 723.186 546.773 722.889 546.639 722.649C546.636 722.644 545.665 720.996 545.059 719.968ZM541.827 717.385C541.038 718.277 539.745 719.738 539.74 719.742C539.554 719.944 539.278 720.058 538.987 720.012C538.533 719.94 538.223 719.513 538.295 719.058C538.314 718.942 538.356 718.836 538.415 718.743L540.483 715.241C540.73 714.825 541.217 714.582 541.724 714.663C542.392 714.769 542.848 715.397 542.742 716.065C542.701 716.317 542.582 716.533 542.423 716.712C542.422 716.714 542.173 716.995 541.827 717.385Z" fill="#FCFCFC"/>
  <path opacity="0.21" fill-rule="evenodd" clip-rule="evenodd" d="M84.809 670.43C84.7194 670.154 84.7731 669.872 84.9129 669.641L86.7684 666.583C86.9123 666.342 87.1444 666.154 87.4323 666.06C88.0756 665.851 88.7665 666.203 88.9755 666.846C89.1192 667.289 88.9835 667.738 88.6986 668.068C88.6929 668.075 86.3835 670.756 86.3775 670.762C86.2723 670.879 86.1362 670.972 85.9755 671.024C85.4893 671.182 84.967 670.916 84.809 670.43ZM83.0044 673.425C81.9102 672.95 80.3797 672.286 80.3746 672.283C80.1244 672.168 79.9311 671.942 79.8849 671.651C79.8129 671.196 80.123 670.77 80.5774 670.698C80.6934 670.679 80.8074 670.686 80.9143 670.714L84.8851 671.595C85.3577 671.702 85.7391 672.089 85.8195 672.597C85.9253 673.264 85.4695 673.892 84.8015 673.997C84.549 674.037 84.3062 673.991 84.0875 673.895L83.0044 673.425ZM91.5783 674.087C91.3151 674.026 91.0302 674.062 90.7957 674.233C90.3826 674.534 90.2919 675.113 90.593 675.526C90.6926 675.663 90.8229 675.763 90.9672 675.827C90.9751 675.831 94.2408 677.193 94.2489 677.196C94.6517 677.364 95.1209 677.354 95.4967 677.08C96.0433 676.681 96.1633 675.915 95.7648 675.369C95.5865 675.124 95.3352 674.962 95.0614 674.901L91.5783 674.087ZM89.0364 681.087C89.2713 681.258 89.3937 681.518 89.4166 681.787L89.7134 685.351C89.7387 685.63 89.6618 685.919 89.4839 686.164C89.0864 686.711 88.3206 686.832 87.7733 686.435C87.3971 686.162 87.2427 685.719 87.2787 685.284L87.3157 684.837L87.3167 684.825C87.396 683.868 87.5716 681.747 87.5725 681.741C87.5886 681.584 87.6442 681.429 87.7435 681.292C88.0439 680.879 88.6228 680.787 89.0364 681.087ZM81.4118 682.123C81.6609 682.019 81.8704 681.822 81.9604 681.547C82.1188 681.061 81.8533 680.538 81.3672 680.38C81.2065 680.327 81.042 680.322 80.8878 680.355C80.8792 680.357 77.4342 681.165 77.4257 681.167C77.0007 681.266 76.6266 681.55 76.4824 681.992C76.2728 682.635 76.6241 683.326 77.2671 683.535C77.555 683.629 77.8536 683.613 78.1118 683.503L81.4118 682.123ZM79.3475 674.951C79.0573 674.951 78.8055 674.813 78.6287 674.609L76.2927 671.901C76.1079 671.689 76.0001 671.41 76 671.108C75.9998 670.432 76.5478 669.883 77.2242 669.883C77.6892 669.883 78.0747 670.15 78.3014 670.523L78.5908 671C79.1095 671.853 80.1443 673.556 80.1474 673.562C80.2266 673.698 80.2728 673.856 80.2728 674.025C80.273 674.536 79.8587 674.951 79.3475 674.951ZM87.6666 670.583C87.6658 670.59 87.4351 672.987 87.3299 674.08L87.2788 674.611C87.255 674.849 87.2861 675.094 87.402 675.322C87.7089 675.924 88.4462 676.164 89.049 675.858C89.5072 675.624 89.758 675.142 89.713 674.66L89.3265 670.612C89.3195 670.502 89.2908 670.391 89.2375 670.286C89.0288 669.876 88.5272 669.713 88.1171 669.922C87.8544 670.056 87.6988 670.309 87.6666 670.583ZM87.5822 677.868C87.5907 677.866 91.5248 676.99 91.5334 676.989C91.8034 676.935 92.0928 677.004 92.3014 677.212C92.627 677.537 92.6272 678.065 92.302 678.39C92.219 678.473 92.1229 678.535 92.0203 678.575L88.2902 680.197C87.8456 680.389 87.3093 680.301 86.9456 679.937C86.4671 679.459 86.4667 678.684 86.9447 678.206C87.1254 678.025 87.3489 677.919 87.5822 677.868ZM85.0585 679.968L85.0401 679.937L84.5836 679.162C84.4631 678.956 84.2939 678.776 84.0661 678.66C83.4636 678.353 82.726 678.592 82.4188 679.195C82.1852 679.653 82.2659 680.19 82.5858 680.554L85.2788 683.601C85.3492 683.686 85.4374 683.759 85.5419 683.812C85.9519 684.021 86.4536 683.858 86.6626 683.449C86.7965 683.186 86.7732 682.889 86.6385 682.649C86.6356 682.644 85.6645 680.996 85.0585 679.968ZM81.8272 677.385C81.038 678.277 79.7446 679.738 79.7404 679.742C79.5535 679.944 79.2785 680.058 78.9873 680.012C78.5329 679.94 78.2231 679.513 78.2954 679.058C78.3139 678.942 78.3556 678.836 78.4148 678.743L80.4831 675.241C80.7303 674.825 81.2167 674.582 81.7245 674.663C82.3924 674.769 82.8478 675.397 82.7415 676.065C82.7014 676.317 82.5824 676.533 82.4234 676.712C82.4216 676.714 82.1728 676.995 81.8272 677.385Z" fill="#FCFCFC"/>
  <path opacity="0.21" fill-rule="evenodd" clip-rule="evenodd" d="M171.809 731.43C171.719 731.154 171.773 730.872 171.913 730.641L173.768 727.583C173.912 727.342 174.144 727.154 174.432 727.06C175.076 726.851 175.766 727.203 175.975 727.846C176.119 728.289 175.983 728.738 175.699 729.068C175.693 729.075 173.384 731.756 173.378 731.762C173.272 731.879 173.136 731.972 172.975 732.024C172.489 732.182 171.967 731.916 171.809 731.43ZM170.004 734.425C168.91 733.95 167.38 733.286 167.375 733.283C167.124 733.168 166.931 732.942 166.885 732.651C166.813 732.196 167.123 731.77 167.577 731.698C167.693 731.679 167.807 731.686 167.914 731.714L171.885 732.595C172.358 732.702 172.739 733.089 172.82 733.597C172.925 734.264 172.47 734.892 171.802 734.997C171.549 735.037 171.306 734.991 171.087 734.895L170.004 734.425ZM178.578 735.087C178.315 735.026 178.03 735.062 177.796 735.233C177.383 735.534 177.292 736.113 177.593 736.526C177.693 736.663 177.823 736.763 177.967 736.827C177.975 736.831 181.241 738.193 181.249 738.196C181.652 738.364 182.121 738.354 182.497 738.08C183.043 737.681 183.163 736.915 182.765 736.369C182.586 736.124 182.335 735.962 182.061 735.901L178.578 735.087ZM176.036 742.087C176.271 742.258 176.394 742.518 176.417 742.787L176.713 746.351C176.739 746.63 176.662 746.919 176.484 747.164C176.086 747.711 175.321 747.832 174.773 747.435C174.397 747.162 174.243 746.719 174.279 746.284L174.316 745.837L174.317 745.825C174.396 744.868 174.572 742.747 174.572 742.741C174.589 742.584 174.644 742.429 174.744 742.292C175.044 741.879 175.623 741.787 176.036 742.087ZM168.412 743.123C168.661 743.019 168.87 742.822 168.96 742.547C169.119 742.061 168.853 741.538 168.367 741.38C168.206 741.327 168.042 741.322 167.888 741.355C167.879 741.357 164.434 742.165 164.426 742.167C164.001 742.266 163.627 742.55 163.482 742.992C163.273 743.635 163.624 744.326 164.267 744.535C164.555 744.629 164.854 744.613 165.112 744.503L168.412 743.123ZM166.348 735.951C166.057 735.951 165.805 735.813 165.629 735.609L163.293 732.901C163.108 732.689 163 732.41 163 732.108C163 731.432 163.548 730.883 164.224 730.883C164.689 730.883 165.075 731.15 165.301 731.523L165.591 732C166.11 732.853 167.144 734.556 167.147 734.562C167.227 734.698 167.273 734.856 167.273 735.025C167.273 735.536 166.859 735.951 166.348 735.951ZM174.667 731.583C174.666 731.59 174.435 733.987 174.33 735.08L174.279 735.611C174.255 735.849 174.286 736.094 174.402 736.322C174.709 736.924 175.446 737.164 176.049 736.858C176.507 736.624 176.758 736.142 176.713 735.66L176.326 731.612C176.32 731.502 176.291 731.391 176.238 731.286C176.029 730.876 175.527 730.713 175.117 730.922C174.854 731.056 174.699 731.309 174.667 731.583ZM174.582 738.868C174.591 738.866 178.525 737.99 178.533 737.989C178.803 737.935 179.093 738.004 179.301 738.212C179.627 738.537 179.627 739.065 179.302 739.39C179.219 739.473 179.123 739.535 179.02 739.575L175.29 741.197C174.846 741.389 174.309 741.301 173.946 740.937C173.467 740.459 173.467 739.684 173.945 739.206C174.125 739.025 174.349 738.919 174.582 738.868ZM172.059 740.968L172.04 740.937L171.584 740.162C171.463 739.956 171.294 739.776 171.066 739.66C170.464 739.353 169.726 739.592 169.419 740.195C169.185 740.653 169.266 741.19 169.586 741.554L172.279 744.601C172.349 744.686 172.437 744.759 172.542 744.812C172.952 745.021 173.454 744.858 173.663 744.449C173.797 744.186 173.773 743.889 173.639 743.649C173.636 743.644 172.665 741.996 172.059 740.968ZM168.827 738.385C168.038 739.277 166.745 740.738 166.74 740.742C166.554 740.944 166.278 741.058 165.987 741.012C165.533 740.94 165.223 740.513 165.295 740.058C165.314 739.942 165.356 739.836 165.415 739.743L167.483 736.241C167.73 735.825 168.217 735.582 168.724 735.663C169.392 735.769 169.848 736.397 169.742 737.065C169.701 737.317 169.582 737.533 169.423 737.712C169.422 737.714 169.173 737.995 168.827 738.385Z" fill="#FCFCFC"/>
</svg>
