<svg width="24" height="24" viewBox="0 0 24 24" fill="none" xmlns="http://www.w3.org/2000/svg">
  <rect width="24" height="24" rx="4" fill="#141ED2"/>
  <path d="M13.125 5.25C9.3975 5.25 6.375 8.2725 6.375 12H4.125L7.0425 14.9175L7.095 15.0225L10.125 12H7.875C7.875 9.0975 10.2225 6.75 13.125 6.75C16.0275 6.75 18.375 9.0975 18.375 12C18.375 14.9025 16.0275 17.25 13.125 17.25C11.6775 17.25 10.365 16.6575 9.42 15.705L8.355 16.77C9.5775 17.9925 11.2575 18.75 13.125 18.75C16.8525 18.75 19.875 15.7275 19.875 12C19.875 8.2725 16.8525 5.25 13.125 5.25ZM12.375 9V12.75L15.585 14.655L16.125 13.7475L13.5 12.1875V9H12.375Z" fill="white"/>
</svg>
