<svg width="24" height="24" viewBox="0 0 24 24" fill="none" xmlns="http://www.w3.org/2000/svg">
<rect width="24" height="24" rx="4" fill="#141ED2"/>
<path d="M18 8.25H14.25V6C14.25 5.175 13.575 4.5 12.75 4.5H11.25C10.425 4.5 9.75 5.175 9.75 6V8.25H6C5.175 8.25 4.5 8.925 4.5 9.75V18C4.5 18.825 5.175 19.5 6 19.5H18C18.825 19.5 19.5 18.825 19.5 18V9.75C19.5 8.925 18.825 8.25 18 8.25ZM9.75 12C10.3725 12 10.875 12.5025 10.875 13.125C10.875 13.7475 10.3725 14.25 9.75 14.25C9.1275 14.25 8.625 13.7475 8.625 13.125C8.625 12.5025 9.1275 12 9.75 12ZM12 16.5H7.5V15.9375C7.5 15.1875 9 14.8125 9.75 14.8125C10.5 14.8125 12 15.1875 12 15.9375V16.5ZM12.75 9.75H11.25V6H12.75V9.75ZM16.5 15.375H13.5V14.25H16.5V15.375ZM16.5 13.125H13.5V12H16.5V13.125Z" fill="white"/>
</svg>
