<svg width="24" height="24" viewBox="0 0 24 24" fill="none" xmlns="http://www.w3.org/2000/svg">
  <rect width="24" height="24" rx="4" fill="#141ED2"/>
  <path d="M17.25 6.75V17.25H6.75V6.75H17.25ZM18.075 5.25H5.925C5.55 5.25 5.25 5.55 5.25 5.925V18.075C5.25 18.375 5.55 18.75 5.925 18.75H18.075C18.375 18.75 18.75 18.375 18.75 18.075V5.925C18.75 5.55 18.375 5.25 18.075 5.25ZM11.25 8.25H15.75V9.75H11.25V8.25ZM11.25 11.25H15.75V12.75H11.25V11.25ZM11.25 14.25H15.75V15.75H11.25V14.25ZM8.25 8.25H9.75V9.75H8.25V8.25ZM8.25 11.25H9.75V12.75H8.25V11.25ZM8.25 14.25H9.75V15.75H8.25V14.25Z" fill="white"/>
</svg>
