<svg width="24" height="24" viewBox="0 0 24 24" fill="none" xmlns="http://www.w3.org/2000/svg">
<rect width="24" height="24" rx="4" fill="#141ED2"/>
<path d="M17.25 6H14.115C13.8 5.13 12.975 4.5 12 4.5C11.025 4.5 10.2 5.13 9.885 6H6.75C5.925 6 5.25 6.675 5.25 7.5V18C5.25 18.825 5.925 19.5 6.75 19.5H17.25C18.075 19.5 18.75 18.825 18.75 18V7.5C18.75 6.675 18.075 6 17.25 6ZM12 6C12.4125 6 12.75 6.3375 12.75 6.75C12.75 7.1625 12.4125 7.5 12 7.5C11.5875 7.5 11.25 7.1625 11.25 6.75C11.25 6.3375 11.5875 6 12 6ZM12 9C13.245 9 14.25 10.005 14.25 11.25C14.25 12.495 13.245 13.5 12 13.5C10.755 13.5 9.75 12.495 9.75 11.25C9.75 10.005 10.755 9 12 9ZM16.5 18H7.5V16.95C7.5 15.45 10.5 14.625 12 14.625C13.5 14.625 16.5 15.45 16.5 16.95V18Z" fill="white"/>
</svg>
